<?xml version="1.0" encoding="utf-8"?>
<!-- Generator: Adobe Illustrator 24.0.1, SVG Export Plug-In . SVG Version: 6.00 Build 0)  -->
<svg version="1.1" id="Layer_1" xmlns="http://www.w3.org/2000/svg" xmlns:xlink="http://www.w3.org/1999/xlink" x="0px" y="0px"
	 viewBox="0 0 1920 1306.9" style="enable-background:new 0 0 1920 1306.9;" xml:space="preserve">
<style type="text/css">
	.st0{clip-path:url(#SVGID_2_);}
	.st1{fill:#9D7DFE;}
	.st2{clip-path:url(#SVGID_4_);fill:#FFFFFF;}
	.st3{clip-path:url(#SVGID_6_);fill:#FFFFFF;}
	.st4{clip-path:url(#SVGID_8_);fill:#FFFFFF;}
	.st5{clip-path:url(#SVGID_10_);}
	.st6{fill:#F8F8F8;}
	.st7{fill:#835AFD;}
	.st8{opacity:0.5;fill:url(#SVGID_11_);enable-background:new    ;}
	.st9{opacity:0.5;fill:url(#SVGID_12_);enable-background:new    ;}
	.st10{opacity:7.000000e-02;fill:url(#SVGID_13_);enable-background:new    ;}
	.st11{opacity:7.000000e-02;fill:url(#SVGID_14_);enable-background:new    ;}
	.st12{opacity:0.2;fill:url(#SVGID_15_);enable-background:new    ;}
	.st13{fill:#E559F9;}
	.st14{opacity:0.15;fill:#FEFEFE;enable-background:new    ;}
	.st15{opacity:0.2;fill:url(#SVGID_16_);enable-background:new    ;}
	.st16{opacity:0.3;fill:url(#SVGID_17_);enable-background:new    ;}
	.st17{opacity:0.2;fill:url(#SVGID_18_);enable-background:new    ;}
	.st18{opacity:0.2;fill:url(#SVGID_19_);enable-background:new    ;}
	.st19{opacity:0.2;fill:url(#SVGID_20_);enable-background:new    ;}
	.st20{opacity:0.3;fill:url(#SVGID_21_);enable-background:new    ;}
	.st21{opacity:0.3;fill:url(#SVGID_22_);enable-background:new    ;}
	.st22{opacity:0.2;fill:url(#SVGID_23_);enable-background:new    ;}
	.st23{fill:#FFFFFF;}
	.st24{opacity:0.7;fill:#F8F8F8;enable-background:new    ;}
	.st25{fill:none;stroke:#FAFAFA;stroke-width:1.5;stroke-linecap:round;stroke-linejoin:round;}
	.st26{fill:#FAFAFA;}
	.st27{fill:#A8A8B3;}
	.st28{fill:none;stroke:#A8A8B3;}
	.st29{fill:#F44336;}
	.st30{fill:#2196F3;}
	.st31{fill:#FFC107;}
	.st32{fill:#00B060;}
	.st33{opacity:0.1;enable-background:new    ;}
	.st34{fill:#E6E6E6;}
	.st35{opacity:0.2;fill:#FEFEFE;enable-background:new    ;}
	.st36{fill:url(#SVGID_24_);}
	.st37{fill:#29292E;}
	.st38{fill:url(#SVGID_25_);}
	.st39{fill:url(#SVGID_26_);}
	.st40{fill:url(#SVGID_27_);}
	.st41{fill:none;stroke:url(#SVGID_28_);stroke-width:4.3008;}
</style>
<g>
	<g>
		<defs>
			<rect id="SVGID_1_" width="1920" height="1214.9"/>
		</defs>
		<clipPath id="SVGID_2_">
			<use xlink:href="#SVGID_1_"  style="overflow:visible;"/>
		</clipPath>
		<g class="st0">
			<path class="st1" d="M30,0h1860c16.6,0,30,13.4,30,30v1154.9c0,16.6-13.4,30-30,30H30c-16.6,0-30-13.4-30-30V30
				C0,13.4,13.4,0,30,0z"/>
		</g>
	</g>
	<g>
		<defs>
			<rect id="SVGID_3_" width="1920" height="1214.9"/>
		</defs>
		<clipPath id="SVGID_4_">
			<use xlink:href="#SVGID_3_"  style="overflow:visible;"/>
		</clipPath>
		<path class="st2" d="M272.1,233.6h40.3v19.1h-63.3V138.9h23L272.1,233.6L272.1,233.6z M358.8,254.2c-11.4,0-20.2-3.4-26.6-10.2
			s-9.5-16.5-9.5-29.1v-6.7c0-13.3,2.9-23.6,8.8-30.9c5.8-7.2,14.2-10.9,25.1-10.9c10.6,0,18.6,3.4,24,10.2s8.1,16.8,8.2,30.2v10.9
			h-44c0.3,6.3,1.7,10.8,4.1,13.8c2.4,2.9,6.2,4.3,11.3,4.3c7.4,0,13.6-2.5,18.5-7.6l8.7,13.4c-2.7,3.8-6.6,6.8-11.8,9.1
			C370.4,253.1,364.8,254.2,358.8,254.2z M344.8,202.4H367v-2c-0.1-5.1-0.9-8.9-2.5-11.5s-4.3-3.9-8.1-3.9s-6.7,1.4-8.4,4.1
			C346.2,191.8,345.2,196.3,344.8,202.4z M426.9,147.4v20.8h11.3v16.6h-11.3v42c0,3.3,0.4,5.6,1.3,6.9c0.9,1.3,2.7,1.9,5.3,1.9
			c2.1,0,3.9-0.2,5.2-0.5l-0.2,17.2c-3.8,1.4-7.8,2.1-12.2,2.1c-14.3,0-21.5-8.2-21.6-24.5V185H395v-16.6h9.8v-20.8h22.1V147.4z
			 M471.2,168.1l0.6,7.8c4.9-6.3,11.5-9.4,19.6-9.4c8.4,0,14.4,3.8,17.9,11.4c4.8-7.6,11.7-11.4,20.7-11.4
			c14.8,0,22.4,10.2,22.7,30.7v55.4h-22.1v-54c0-4.9-0.7-8.4-2-10.5c-1.4-2.1-3.6-3.1-6.9-3.1c-4.1,0-7.2,2.5-9.2,7.6l0.2,2.7v57.3
			h-22.1v-53.8c0-4.8-0.7-8.3-2-10.5s-3.6-3.3-7-3.3c-3.8,0-6.8,2.1-9.1,6.2v61.4h-22.1v-84.5H471.2z M603.3,254.2
			c-11.4,0-20.2-3.4-26.6-10.2s-9.5-16.5-9.5-29.1v-6.7c0-13.3,2.9-23.6,8.8-30.9c5.8-7.2,14.2-10.9,25.1-10.9
			c10.6,0,18.6,3.4,24,10.2s8.1,16.8,8.2,30.2v10.9h-44c0.3,6.3,1.7,10.8,4.1,13.8c2.4,2.9,6.2,4.3,11.3,4.3
			c7.4,0,13.6-2.5,18.5-7.6l8.7,13.4c-2.7,3.8-6.6,6.8-11.8,9.1C614.9,253.1,609.3,254.2,603.3,254.2z M589.4,202.4h22.1v-2
			c-0.1-5.1-0.9-8.9-2.5-11.5s-4.3-3.9-8.1-3.9c-3.9,0-6.7,1.4-8.4,4.1C590.7,191.8,589.7,196.3,589.4,202.4z M685.9,252.7
			c-0.6-1.3-1.3-3.5-1.9-6.6c-4,5.4-9.3,8.1-16.1,8.1c-7.1,0-13-2.3-17.7-7c-4.6-4.7-7-10.8-7-18.2c0-8.9,2.8-15.7,8.4-20.5
			c5.7-4.8,13.8-7.3,24.5-7.4h6.7v-6.8c0-3.8-0.7-6.5-2-8c-1.3-1.6-3.2-2.3-5.7-2.3c-5.5,0-8.3,3.2-8.3,9.7h-22.1
			c0-7.8,2.9-14.2,8.8-19.3c5.9-5.1,13.3-7.7,22.3-7.7c9.3,0,16.4,2.4,21.5,7.3c5.1,4.8,7.7,11.7,7.7,20.6v39.8
			c0.1,7.3,1.1,13,3.1,17.1v1.3h-22.2V252.7z M672.8,236.9c2.4,0,4.5-0.5,6.3-1.5c1.7-1,3-2.2,3.8-3.5v-17.6h-5.3
			c-3.8,0-6.7,1.2-8.9,3.6c-2.1,2.4-3.2,5.6-3.2,9.6C665.5,233.8,667.9,236.9,672.8,236.9z M758.4,230c0-1.9-0.9-3.6-2.7-5.2
			c-1.8-1.6-5.8-3.8-12-6.5c-9.1-3.7-15.4-7.5-18.8-11.5c-3.4-4-5.1-8.9-5.1-14.8c0-7.4,2.7-13.5,8-18.3c5.4-4.8,12.4-7.3,21.3-7.3
			c9.3,0,16.7,2.4,22.3,7.2s8.4,11.2,8.4,19.3h-22.1c0-6.9-2.9-10.3-8.6-10.3c-2.3,0-4.3,0.7-5.8,2.2s-2.3,3.5-2.3,6.1
			c0,1.9,0.8,3.5,2.5,5c1.7,1.4,5.6,3.4,11.8,6.1c9,3.3,15.4,7.1,19.1,11.2c3.8,4.1,5.6,9.3,5.6,15.9c0,7.6-2.8,13.6-8.5,18.2
			c-5.7,4.6-13.1,6.9-22.3,6.9c-6.2,0-11.7-1.2-16.4-3.6c-4.7-2.4-8.5-5.8-11.2-10.2c-2.7-4.3-4-9-4-14h21c0.1,3.9,1,6.7,2.7,8.7
			c1.7,1.9,4.5,2.9,8.4,2.9C755.5,238.1,758.4,235.4,758.4,230z M821.7,220.1l-5.9,6.6v25.9h-22.1v-120h22.1v64.8l2.7-4.1l15.3-25.3
			h26.3l-24.5,35l26.9,49.7h-25.3L821.7,220.1z"/>
	</g>
	<g>
		<defs>
			<rect id="SVGID_5_" width="1920" height="1214.9"/>
		</defs>
		<clipPath id="SVGID_6_">
			<use xlink:href="#SVGID_5_"  style="overflow:visible;"/>
		</clipPath>
		<path class="st3" d="M290.3,373.8h-7.5L254.1,330v43.8h-7.5v-56.9h7.5l28.7,44v-44h7.5L290.3,373.8L290.3,373.8z M320,374.6
			c-5.7,0-10.4-1.9-14-5.6c-3.6-3.8-5.4-8.8-5.4-15.1v-1.3c0-4.2,0.8-7.9,2.4-11.2c1.6-3.3,3.9-5.9,6.7-7.7c2.9-1.9,6-2.8,9.4-2.8
			c5.5,0,9.8,1.8,12.8,5.4s4.6,8.8,4.6,15.5v3h-28.6c0.1,4.2,1.3,7.5,3.6,10.1c2.3,2.6,5.3,3.8,8.9,3.8c2.6,0,4.7-0.5,6.5-1.6
			c1.8-1,3.3-2.4,4.6-4.1l4.4,3.4C332.4,371.9,327.1,374.6,320,374.6z M319.1,336.7c-2.9,0-5.4,1.1-7.3,3.2c-2,2.1-3.2,5.1-3.7,8.9
			h21.2v-0.5c-0.2-3.7-1.2-6.5-3-8.5C324.6,337.7,322.2,336.7,319.1,336.7z M359.1,347l9.4-15.4h8.4l-13.8,20.9l14.3,21.4H369
			l-9.8-15.8l-9.8,15.8H341l14.3-21.4l-13.8-20.9h8.4L359.1,347z M394.4,321.3v10.2h7.9v5.6h-7.9v26.2c0,1.7,0.4,3,1.1,3.8
			s1.9,1.3,3.6,1.3c0.8,0,2-0.2,3.4-0.5v5.9c-1.9,0.5-3.8,0.8-5.5,0.8c-3.2,0-5.7-1-7.3-2.9c-1.6-2-2.5-4.7-2.5-8.3v-26.2h-7.7v-5.6
			h7.7v-10.2L394.4,321.3L394.4,321.3z M439.3,367.7h27v6.1h-34.5v-56.9h7.5V367.7z M491.2,374.6c-5.7,0-10.4-1.9-14-5.6
			c-3.6-3.8-5.4-8.8-5.4-15.1v-1.3c0-4.2,0.8-7.9,2.4-11.2c1.6-3.3,3.9-5.9,6.7-7.7c2.9-1.9,6-2.8,9.4-2.8c5.5,0,9.8,1.8,12.8,5.4
			s4.6,8.8,4.6,15.5v3h-28.6c0.1,4.2,1.3,7.5,3.6,10.1c2.3,2.6,5.3,3.8,8.9,3.8c2.6,0,4.7-0.5,6.5-1.6c1.8-1,3.3-2.4,4.6-4.1
			l4.4,3.4C503.6,371.9,498.3,374.6,491.2,374.6z M490.3,336.7c-2.9,0-5.4,1.1-7.3,3.2c-2,2.1-3.2,5.1-3.7,8.9h21.2v-0.5
			c-0.2-3.7-1.2-6.5-3-8.5C495.7,337.7,493.3,336.7,490.3,336.7z M529.5,364l10.5-32.5h7.4l-15.2,42.3h-5.5l-15.3-42.3h7.4
			L529.5,364z M571.3,374.6c-5.7,0-10.4-1.9-14-5.6c-3.6-3.8-5.4-8.8-5.4-15.1v-1.3c0-4.2,0.8-7.9,2.4-11.2c1.6-3.3,3.9-5.9,6.7-7.7
			c2.9-1.9,6-2.8,9.4-2.8c5.5,0,9.8,1.8,12.8,5.4s4.6,8.8,4.6,15.5v3h-28.6c0.1,4.2,1.3,7.5,3.6,10.1s5.3,3.8,8.9,3.8
			c2.6,0,4.7-0.5,6.5-1.6c1.8-1,3.3-2.4,4.6-4.1l4.4,3.4C583.7,371.9,578.4,374.6,571.3,374.6z M570.4,336.7c-2.9,0-5.4,1.1-7.3,3.2
			c-2,2.1-3.2,5.1-3.7,8.9h21.2v-0.5c-0.2-3.7-1.2-6.5-3-8.5C575.8,337.7,573.4,336.7,570.4,336.7z M604,373.8h-7.2v-60h7.2V373.8z
			 M648.9,355.9l1.1,7.5l1.6-6.8l11.3-39.7h6.3l11,39.7l1.6,6.9l1.2-7.7l8.8-38.9h7.5l-13.8,56.9h-6.8L667,332.4l-1-4.4l-0.9,4.3
			L653,373.8h-6.8l-13.8-56.9h7.5L648.9,355.9z M722.8,374.6c-5.7,0-10.4-1.9-14-5.6c-3.6-3.8-5.4-8.8-5.4-15.1v-1.3
			c0-4.2,0.8-7.9,2.4-11.2c1.6-3.3,3.9-5.9,6.7-7.7c2.9-1.9,6-2.8,9.4-2.8c5.5,0,9.8,1.8,12.8,5.4s4.6,8.8,4.6,15.5v3h-28.6
			c0.1,4.2,1.3,7.5,3.6,10.1s5.3,3.8,8.9,3.8c2.6,0,4.7-0.5,6.5-1.6c1.8-1,3.3-2.4,4.6-4.1l4.4,3.4
			C735.2,371.9,729.9,374.6,722.8,374.6z M721.9,336.7c-2.9,0-5.4,1.1-7.3,3.2c-2,2.1-3.2,5.1-3.7,8.9H732v-0.5
			c-0.2-3.7-1.2-6.5-3-8.5C727.3,337.7,724.9,336.7,721.9,336.7z M765.2,374.6c-5.7,0-10.4-1.9-14-5.6c-3.6-3.8-5.4-8.8-5.4-15.1
			v-1.3c0-4.2,0.8-7.9,2.4-11.2c1.6-3.3,3.9-5.9,6.7-7.7c2.9-1.9,6-2.8,9.4-2.8c5.5,0,9.8,1.8,12.8,5.4s4.6,8.8,4.6,15.5v3H753
			c0.1,4.2,1.3,7.5,3.6,10.1s5.3,3.8,8.9,3.8c2.6,0,4.7-0.5,6.5-1.6c1.8-1,3.3-2.4,4.6-4.1l4.4,3.4
			C777.6,371.9,772.3,374.6,765.2,374.6z M764.3,336.7c-2.9,0-5.4,1.1-7.3,3.2c-2,2.1-3.2,5.1-3.7,8.9h21.2v-0.5
			c-0.2-3.7-1.2-6.5-3-8.5C769.7,337.7,767.3,336.7,764.3,336.7z M801.9,354.2l-4.5,4.7v14.8h-7.2v-60h7.2V350l3.9-4.6l13.2-13.9
			h8.8l-16.4,17.7l18.4,24.6h-8.5L801.9,354.2z M889.3,323.1H871v50.7h-7.5v-50.7h-18.2v-6.2h44V323.1z M890.8,352.3
			c0-4.1,0.8-7.9,2.4-11.2c1.6-3.3,3.9-5.9,6.8-7.7c2.9-1.8,6.2-2.7,10-2.7c5.8,0,10.4,2,13.9,6c3.6,4,5.4,9.3,5.4,15.9v0.5
			c0,4.1-0.8,7.8-2.4,11.1c-1.6,3.3-3.8,5.8-6.8,7.6c-2.9,1.8-6.3,2.7-10.1,2.7c-5.7,0-10.4-2-13.9-6s-5.3-9.3-5.3-15.8L890.8,352.3
			L890.8,352.3z M898.1,353.1c0,4.7,1.1,8.5,3.2,11.3c2.2,2.8,5.1,4.3,8.8,4.3s6.6-1.4,8.8-4.3s3.2-6.9,3.2-12.1
			c0-4.6-1.1-8.4-3.3-11.3s-5.1-4.3-8.8-4.3c-3.6,0-6.4,1.4-8.6,4.3C899.2,343.8,898.1,347.8,898.1,353.1z M936.6,352.3
			c0-6.6,1.5-11.8,4.6-15.7c3-3.9,7.1-5.9,12.1-5.9c5.2,0,9.2,1.8,12.1,5.5l0.4-4.7h6.6v41.3c0,5.5-1.6,9.8-4.9,12.9
			c-3.2,3.2-7.6,4.7-13,4.7c-3,0-6-0.7-8.9-2s-5.1-3.1-6.7-5.4l3.8-4.3c3.1,3.8,6.9,5.7,11.4,5.7c3.5,0,6.3-1,8.2-3c2-2,3-4.8,3-8.4
			v-3.6c-2.9,3.3-6.8,5-11.8,5c-4.9,0-9-2-12-6C938.2,364.6,936.6,359.2,936.6,352.3z M943.9,353.1c0,4.8,1,8.5,2.9,11.3
			c2,2.7,4.7,4.1,8.2,4.1c4.6,0,7.9-2.1,10-6.2V343c-2.2-4-5.5-6.1-10-6.1c-3.5,0-6.3,1.4-8.2,4.1S943.9,347.8,943.9,353.1z
			 M1000.8,374.6c-5.7,0-10.4-1.9-14-5.6c-3.6-3.8-5.4-8.8-5.4-15.1v-1.3c0-4.2,0.8-7.9,2.4-11.2c1.6-3.3,3.9-5.9,6.7-7.7
			c2.9-1.9,6-2.8,9.4-2.8c5.5,0,9.8,1.8,12.8,5.4c3.1,3.6,4.6,8.8,4.6,15.5v3h-28.6c0.1,4.2,1.3,7.5,3.6,10.1s5.3,3.8,8.9,3.8
			c2.5,0,4.7-0.5,6.5-1.6c1.8-1,3.3-2.4,4.6-4.1l4.4,3.4C1013.2,371.9,1007.9,374.6,1000.8,374.6z M999.9,336.7
			c-2.9,0-5.4,1.1-7.3,3.2c-2,2.1-3.2,5.1-3.7,8.9h21.2v-0.5c-0.2-3.7-1.2-6.5-3-8.5C1005.3,337.7,1002.9,336.7,999.9,336.7z
			 M1035.5,321.3v10.2h7.9v5.6h-7.9v26.2c0,1.7,0.3,3,1.1,3.8c0.7,0.8,1.9,1.3,3.6,1.3c0.8,0,2-0.2,3.4-0.5v5.9
			c-1.9,0.5-3.8,0.8-5.5,0.8c-3.2,0-5.7-1-7.3-2.9c-1.6-2-2.5-4.7-2.5-8.3v-26.2h-7.7v-5.6h7.7v-10.2L1035.5,321.3L1035.5,321.3z
			 M1059.1,336.6c3.2-3.9,7.4-5.9,12.5-5.9c8.9,0,13.4,5,13.5,15.1v27.9h-7.2v-28c0-3-0.7-5.3-2.1-6.8c-1.3-1.5-3.5-2.2-6.4-2.2
			c-2.3,0-4.4,0.6-6.2,1.9s-3.2,2.9-4.1,4.9v30.1h-7.2v-60h7.2L1059.1,336.6L1059.1,336.6z M1113.5,374.6c-5.7,0-10.4-1.9-14-5.6
			c-3.6-3.8-5.4-8.8-5.4-15.1v-1.3c0-4.2,0.8-7.9,2.4-11.2c1.6-3.3,3.9-5.9,6.7-7.7c2.9-1.9,6-2.8,9.4-2.8c5.5,0,9.8,1.8,12.8,5.4
			s4.6,8.8,4.6,15.5v3h-28.6c0.1,4.2,1.3,7.5,3.6,10.1c2.3,2.6,5.3,3.8,8.9,3.8c2.6,0,4.7-0.5,6.5-1.6c1.8-1,3.3-2.4,4.7-4.1
			l4.4,3.4C1125.9,371.9,1120.6,374.6,1113.5,374.6z M1112.6,336.7c-2.9,0-5.4,1.1-7.3,3.2c-2,2.1-3.2,5.1-3.7,8.9h21.2v-0.5
			c-0.2-3.7-1.2-6.5-3-8.5C1118,337.7,1115.6,336.7,1112.6,336.7z M1158.8,338c-1.1-0.2-2.3-0.3-3.6-0.3c-4.7,0-7.9,2-9.6,6.1v30
			h-7.2v-42.3h7l0.1,4.9c2.4-3.8,5.7-5.7,10.1-5.7c1.4,0,2.5,0.2,3.2,0.5V338z"/>
	</g>
	<g>
		<defs>
			<rect id="SVGID_7_" width="1920" height="1214.9"/>
		</defs>
		<clipPath id="SVGID_8_">
			<use xlink:href="#SVGID_7_"  style="overflow:visible;"/>
		</clipPath>
		<path class="st4" d="M1534.9,204.7v-29.2h8.3c2.5,0,4.8,0.6,6.7,1.7c2,1.1,3.5,2.7,4.5,4.8c1.1,2.1,1.6,4.5,1.6,7.1v1.9
			c0,2.8-0.5,5.2-1.6,7.2c-1.1,2.1-2.6,3.7-4.6,4.8s-4.3,1.7-6.9,1.7H1534.9z M1538.7,178.6v22.9h4.1c3,0,5.3-0.9,6.9-2.8
			c1.7-1.8,2.5-4.5,2.5-7.9v-1.7c0-3.3-0.8-5.9-2.4-7.7c-1.5-1.8-3.8-2.8-6.6-2.8H1538.7z M1570.3,205.1c-2.9,0-5.3-1-7.2-2.9
			c-1.8-1.9-2.8-4.5-2.8-7.8v-0.7c0-2.2,0.4-4.1,1.2-5.8c0.8-1.7,2-3,3.5-4s3.1-1.4,4.8-1.4c2.8,0,5,0.9,6.6,2.8
			c1.6,1.9,2.4,4.5,2.4,8v1.5h-14.7c0.1,2.1,0.7,3.9,1.9,5.2c1.2,1.3,2.7,2,4.6,2c1.3,0,2.4-0.3,3.3-0.8s1.7-1.2,2.4-2.1l2.3,1.8
			C1576.7,203.7,1573.9,205.1,1570.3,205.1z M1569.8,185.6c-1.5,0-2.8,0.5-3.8,1.6s-1.7,2.6-1.9,4.6h10.9v-0.3
			c-0.1-1.9-0.6-3.3-1.5-4.4C1572.6,186.2,1571.4,185.6,1569.8,185.6z M1595.7,198.9c0-1-0.4-1.8-1.1-2.3c-0.8-0.6-2.1-1-4-1.4
			s-3.4-0.9-4.5-1.4c-1.1-0.6-1.9-1.2-2.4-2s-0.8-1.7-0.8-2.8c0-1.8,0.7-3.3,2.2-4.5s3.4-1.8,5.8-1.8c2.5,0,4.5,0.6,6,1.9
			c1.5,1.3,2.3,2.9,2.3,4.9h-3.7c0-1-0.4-1.9-1.3-2.6c-0.9-0.7-1.9-1.1-3.2-1.1c-1.4,0-2.4,0.3-3.2,0.9c-0.8,0.6-1.1,1.4-1.1,2.3
			c0,0.9,0.3,1.6,1.1,2c0.7,0.5,2,0.9,3.8,1.3c1.9,0.4,3.4,0.9,4.5,1.5c1.2,0.6,2,1.3,2.5,2.1c0.6,0.8,0.8,1.8,0.8,3
			c0,1.9-0.8,3.5-2.3,4.7c-1.6,1.2-3.6,1.7-6,1.7c-1.7,0-3.3-0.3-4.6-0.9c-1.3-0.6-2.4-1.5-3.2-2.6c-0.7-1.1-1.1-2.3-1.1-3.6h3.7
			c0.1,1.2,0.6,2.2,1.5,3c0.9,0.7,2.2,1.1,3.7,1.1c1.4,0,2.5-0.3,3.4-0.8C1595.3,200.7,1595.7,199.9,1595.7,198.9z M1610.4,194.6
			l-2.3,2.4v7.6h-3.7v-30.8h3.7v18.7l2-2.4l6.8-7.1h4.5l-8.5,9.1l9.4,12.6h-4.4L1610.4,194.6z M1630.2,177.7v5.3h4.1v2.9h-4.1v13.5
			c0,0.9,0.2,1.5,0.5,2c0.4,0.4,1,0.6,1.9,0.6c0.4,0,1-0.1,1.8-0.2v3c-1,0.3-1.9,0.4-2.9,0.4c-1.7,0-2.9-0.5-3.8-1.5
			c-0.8-1-1.3-2.4-1.3-4.3v-13.5h-4V183h4v-5.3H1630.2z M1637.2,193.6c0-2.1,0.4-4,1.2-5.7c0.8-1.7,2-3,3.5-3.9s3.2-1.4,5.1-1.4
			c3,0,5.3,1,7.2,3.1c1.8,2,2.7,4.8,2.7,8.2v0.3c0,2.1-0.4,4-1.2,5.7c-0.8,1.7-2,3-3.5,3.9s-3.2,1.4-5.2,1.4c-2.9,0-5.3-1-7.2-3.1
			c-1.8-2-2.7-4.8-2.7-8.1L1637.2,193.6L1637.2,193.6z M1640.9,194.1c0,2.4,0.6,4.3,1.7,5.8s2.6,2.2,4.5,2.2s3.4-0.7,4.5-2.2
			s1.7-3.6,1.7-6.2c0-2.4-0.6-4.3-1.7-5.8s-2.6-2.2-4.5-2.2c-1.8,0-3.3,0.7-4.4,2.2C1641.5,189.3,1640.9,191.4,1640.9,194.1z
			 M1680,194.1c0,3.3-0.8,6-2.3,8s-3.6,3-6.1,3c-2.6,0-4.7-0.8-6.2-2.5v10.5h-3.7V183h3.4l0.2,2.4c1.5-1.9,3.6-2.8,6.3-2.8
			c2.6,0,4.7,1,6.2,3s2.3,4.7,2.3,8.2v0.3H1680z M1676.3,193.7c0-2.5-0.5-4.4-1.6-5.8c-1-1.4-2.5-2.1-4.3-2.1c-2.2,0-3.9,1-5.1,3
			v10.4c1.1,2,2.8,3,5.1,3c1.8,0,3.2-0.7,4.2-2.1C1675.8,198.5,1676.3,196.4,1676.3,193.7z"/>
	</g>
</g>
<g>
	<g>
		<g>
			<defs>
				<path id="SVGID_9_" d="M270,486.9h1380c16.6,0,30,13.4,30,30v760c0,16.6-13.4,30-30,30H270c-16.6,0-30-13.4-30-30v-760
					C240,500.3,253.4,486.9,270,486.9z"/>
			</defs>
			<clipPath id="SVGID_10_">
				<use xlink:href="#SVGID_9_"  style="overflow:visible;"/>
			</clipPath>
			<g class="st5">
				<path class="st6" d="M240,486.9h1440v820H240V486.9z"/>
				<path class="st7" d="M240,486.9h676v820H240V486.9z"/>
				
					<linearGradient id="SVGID_11_" gradientUnits="userSpaceOnUse" x1="293.2882" y1="511.5236" x2="410.0402" y2="596.6935" gradientTransform="matrix(1 0 0 1 0 556)">
					<stop  offset="0" style="stop-color:#FFFFFF"/>
					<stop  offset="1" style="stop-color:#FFFFFF;stop-opacity:0"/>
				</linearGradient>
				<path class="st8" d="M411.9,1094.9c28.7-16.8,52.5-1.1,56.7,35.1c0.7,6.3-4,14.5-9.8,17.9l-93.8,54.8c-5.8,3.4-10.6,0.6-9.8-6.5
					C359.4,1155.2,383.2,1111.6,411.9,1094.9z"/>
				
					<linearGradient id="SVGID_12_" gradientUnits="userSpaceOnUse" x1="352.8158" y1="429.7343" x2="469.5668" y2="514.8944" gradientTransform="matrix(1 0 0 1 0 556)">
					<stop  offset="0" style="stop-color:#FFFFFF"/>
					<stop  offset="1" style="stop-color:#FFFFFF;stop-opacity:0"/>
				</linearGradient>
				<path class="st9" d="M379.9,1047.9c0,25,14.4,36.8,32.3,26.4c17.8-10.4,32.3-39.1,32.3-64.1s-14.4-36.8-32.3-26.4
					S379.9,1022.9,379.9,1047.9z"/>
				
					<linearGradient id="SVGID_13_" gradientUnits="userSpaceOnUse" x1="274.8068" y1="496.5364" x2="391.5578" y2="581.7064" gradientTransform="matrix(1 0 0 1 0 556)">
					<stop  offset="0" style="stop-color:#FFFFFF"/>
					<stop  offset="1" style="stop-color:#FFFFFF;stop-opacity:0"/>
				</linearGradient>
				<path class="st10" d="M393.4,1079.9c28.7-16.8,52.5-1.1,56.7,35.1c0.7,6.3-4,14.5-9.8,17.9l-93.8,54.8
					c-5.8,3.4-10.6,0.6-9.8-6.5C340.9,1140.2,364.7,1096.7,393.4,1079.9z"/>
				
					<linearGradient id="SVGID_14_" gradientUnits="userSpaceOnUse" x1="334.3359" y1="414.7439" x2="451.0869" y2="499.9139" gradientTransform="matrix(1 0 0 1 0 556)">
					<stop  offset="0" style="stop-color:#FFFFFF"/>
					<stop  offset="1" style="stop-color:#FFFFFF;stop-opacity:0"/>
				</linearGradient>
				<path class="st11" d="M361.4,1032.9c0,25,14.4,36.8,32.3,26.4c17.8-10.4,32.3-39.1,32.3-64.1s-14.4-36.8-32.3-26.4
					S361.4,1007.9,361.4,1032.9z"/>
				
					<linearGradient id="SVGID_15_" gradientUnits="userSpaceOnUse" x1="329.3412" y1="647.6861" x2="347.6686" y2="679.4373" gradientTransform="matrix(1 0 0 1 0 556)">
					<stop  offset="0" style="stop-color:#FFFFFF"/>
					<stop  offset="1" style="stop-color:#FFFFFF;stop-opacity:0"/>
				</linearGradient>
				<path class="st12" d="M299.3,1223.6c0-1.6,0.9-3.1,2.2-3.9l72.3-41.7c3-1.7,6.7,0.4,6.7,3.9v34.5l-81.2,46.9V1223.6z"/>
				<path class="st13" d="M364,1197.9c0,3.5,2.1,5.1,4.6,3.7c2.6-1.5,4.6-5.5,4.6-9s-2.1-5.1-4.6-3.7
					C366,1190.4,364,1194.4,364,1197.9z"/>
				<path class="st14" d="M359.7,1196.4l-24.4,14.1v5.1l24.5-14.1L359.7,1196.4z"/>
				<path class="st14" d="M359.7,1206.6l-52,30v5.2l52-30V1206.6z"/>
				
					<linearGradient id="SVGID_16_" gradientUnits="userSpaceOnUse" x1="494.3309" y1="598.8118" x2="512.651" y2="630.5618" gradientTransform="matrix(1 0 0 1 0 556)">
					<stop  offset="0" style="stop-color:#FFFFFF"/>
					<stop  offset="1" style="stop-color:#FFFFFF;stop-opacity:0"/>
				</linearGradient>
				<path class="st15" d="M464.3,1174.7c0-1.6,0.9-3.1,2.2-3.9l72.3-41.7c3-1.7,6.7,0.4,6.7,3.9v34.6l-81.2,46.9V1174.7z"/>
				<path class="st7" d="M529,1149c0,3.5,2.1,5.1,4.6,3.7c2.6-1.5,4.6-5.5,4.6-8.9c0-3.5-2.1-5.1-4.6-3.7
					C531,1141.5,529,1145.5,529,1149z"/>
				<path class="st14" d="M524.8,1147.7l-14.7,8.5v5.2l14.7-8.5V1147.7z"/>
				<path class="st14" d="M524.7,1157.9l-52,30v5.2l52-30V1157.9z"/>
				
					<linearGradient id="SVGID_17_" gradientUnits="userSpaceOnUse" x1="465.8984" y1="654.3704" x2="545.3674" y2="716.5905" gradientTransform="matrix(1 0 0 1 0 556)">
					<stop  offset="0" style="stop-color:#FFFFFF"/>
					<stop  offset="1" style="stop-color:#FFFFFF;stop-opacity:0"/>
				</linearGradient>
				<path class="st16" d="M432.7,1244.6c0-1.6,0.9-3.1,2.2-3.9l144.9-83.6c3-1.7,6.7,0.4,6.7,3.9v72.4l-140.3,81l-10.8,16.1
					c-0.8,1.2-2.7,0.6-2.7-0.8L432.7,1244.6z"/>
				<path class="st14" d="M472.3,1252.8l100.7-58.1v7l-100.7,58.1V1252.8z"/>
				
					<linearGradient id="SVGID_18_" gradientUnits="userSpaceOnUse" x1="314.8943" y1="582.6021" x2="338.0764" y2="595.522" gradientTransform="matrix(1 0 0 1 0 556)">
					<stop  offset="0" style="stop-color:#FFFFFF"/>
					<stop  offset="1" style="stop-color:#FFFFFF;stop-opacity:0"/>
				</linearGradient>
				<path class="st17" d="M324,1113.4l-12.7,25c-1.7,3.4-1.5,6.9,0.6,7.7c2.1,0.8,5.2-1.3,6.9-4.8l0.1-0.3v27.7
					c0,3.2,2.2,4.4,4.9,2.9c2.7-1.6,4.9-5.4,4.9-8.6v-27.7l0.1,0.1c1.7,1.4,4.9,0,6.9-3.3c2.1-3.2,2.4-7,0.6-8.4L324,1113.4z"/>
				
					<linearGradient id="SVGID_19_" gradientUnits="userSpaceOnUse" x1="772.3216" y1="-25.2985" x2="790.6513" y2="6.4575" gradientTransform="matrix(1 0 0 1 0 556)">
					<stop  offset="0" style="stop-color:#FFFFFF"/>
					<stop  offset="1" style="stop-color:#FFFFFF;stop-opacity:0"/>
				</linearGradient>
				<path class="st18" d="M742.3,550.6c0-1.6,0.9-3.1,2.2-3.9l72.3-41.7c3-1.7,6.7,0.4,6.7,3.9v34.6l-81.2,46.9V550.6z"/>
				<path class="st13" d="M807,524.9c0,3.5,2.1,5.1,4.6,3.7c2.6-1.5,4.6-5.5,4.6-9s-2.1-5.1-4.6-3.7C809,517.4,807,521.4,807,524.9z
					"/>
				<path class="st14" d="M802.7,523.4l-24.4,14.1v5.1l24.5-14.1L802.7,523.4z"/>
				<path class="st14" d="M802.7,533.6l-52,30v5.2l52-30V533.6z"/>
				
					<linearGradient id="SVGID_20_" gradientUnits="userSpaceOnUse" x1="937.3246" y1="-74.1935" x2="955.6447" y2="-42.4535" gradientTransform="matrix(1 0 0 1 0 556)">
					<stop  offset="0" style="stop-color:#FFFFFF"/>
					<stop  offset="1" style="stop-color:#FFFFFF;stop-opacity:0"/>
				</linearGradient>
				<path class="st19" d="M907.3,501.7c0-1.6,0.9-3.1,2.2-3.9l72.3-41.7c3-1.7,6.7,0.4,6.7,3.9v34.6l-81.2,46.9V501.7z"/>
				<path class="st14" d="M967.8,474.7l-14.7,8.5v5.2l14.7-8.5V474.7z"/>
				<path class="st14" d="M967.7,484.9l-52,30v5.2l52-30V484.9z"/>
				
					<linearGradient id="SVGID_21_" gradientUnits="userSpaceOnUse" x1="788.9267" y1="-7.4216" x2="769.0297" y2="153.9624" gradientTransform="matrix(1 0 0 1 0 556)">
					<stop  offset="0" style="stop-color:#FFFFFF"/>
					<stop  offset="1" style="stop-color:#FFFFFF;stop-opacity:0"/>
				</linearGradient>
				<path class="st20" d="M854.9,553.7c0-3.5-3.7-5.6-6.7-3.9l-144.9,83.7c-1.4,0.8-2.2,2.3-2.2,3.9V715l140.3-81l11.6,3.8
					c1,0.3,2-0.4,2-1.4L854.9,553.7z"/>
				<path class="st13" d="M823.7,590.9c0,6.6,3.9,9.7,8.7,6.9s8.7-10.4,8.7-17s-3.9-9.7-8.7-6.9
					C827.6,576.7,823.7,584.3,823.7,590.9z"/>
				<path class="st14" d="M815.4,588.3l-33.7,19.5v7l33.7-19.5V588.3z"/>
				<path class="st14" d="M815.4,602.4l-100.7,58.1v7l100.7-58.1V602.4z"/>
				<path class="st14" d="M815.4,616.6L736.6,662v7l78.8-45.5L815.4,616.6L815.4,616.6z"/>
				
					<linearGradient id="SVGID_22_" gradientUnits="userSpaceOnUse" x1="908.8785" y1="-18.6071" x2="988.3475" y2="43.6149" gradientTransform="matrix(1 0 0 1 0 556)">
					<stop  offset="0" style="stop-color:#FFFFFF"/>
					<stop  offset="1" style="stop-color:#FFFFFF;stop-opacity:0"/>
				</linearGradient>
				<path class="st21" d="M875.7,571.6c0-1.6,0.9-3.1,2.2-3.9l144.9-83.6c3-1.7,6.7,0.4,6.7,3.9l-0.1,72.4l-140.3,81l-10.8,16.1
					c-0.8,1.2-2.7,0.6-2.7-0.8L875.7,571.6z"/>
				<path class="st7" d="M907,577.8c0,6.6-3.9,14.2-8.7,17s-8.7-0.3-8.7-6.9s3.9-14.2,8.7-17S907,571.2,907,577.8z"/>
				<path class="st14" d="M915.3,565.7l33.7-19.5v7l-33.7,19.5V565.7z"/>
				<path class="st14" d="M915.3,579.8l100.7-58.1v7l-100.7,58.1V579.8z"/>
				<path class="st14" d="M915.3,593.9l78.8-45.5v7l-78.8,45.5V593.9z"/>
				
					<linearGradient id="SVGID_23_" gradientUnits="userSpaceOnUse" x1="956.0242" y1="80.7342" x2="979.9542" y2="99.6192" gradientTransform="matrix(1 0 0 1 0 556)">
					<stop  offset="0" style="stop-color:#FFFFFF"/>
					<stop  offset="1" style="stop-color:#FFFFFF;stop-opacity:0"/>
				</linearGradient>
				<path class="st22" d="M965.5,618.9c-2.7,1.6-4.9,5.4-4.9,8.6v13.9l-9.2,5.3c-2.7,1.6-4.9,5.4-4.9,8.5c0,3.2,2.2,4.4,4.9,2.9
					l9.2-5.3v13.9c0,3.2,2.2,4.4,4.9,2.9c2.7-1.6,4.9-5.4,4.9-8.5v-13.9l9.2-5.3c2.7-1.6,4.9-5.4,4.9-8.5c0-3.2-2.2-4.4-4.9-2.9
					l-9.2,5.3v-13.9C970.5,618.6,968.3,617.3,965.5,618.9z"/>
				<path class="st23" d="M322.4,770.6v4.9h-6.7v20.3h-6.2v-20.3h-6.7v-4.9H322.4z M334.6,796.2c-2,0-3.7-0.4-5.3-1.3
					c-1.6-0.8-2.8-2-3.7-3.6c-0.9-1.6-1.3-3.4-1.3-5.5s0.5-3.9,1.4-5.4c0.9-1.6,2.2-2.8,3.7-3.6c1.6-0.8,3.4-1.3,5.3-1.3
					c2,0,3.7,0.4,5.3,1.3c1.6,0.8,2.8,2.1,3.7,3.6c0.9,1.6,1.4,3.4,1.4,5.4c0,2.1-0.5,3.9-1.4,5.5s-2.2,2.8-3.8,3.6
					C338.4,795.8,336.6,796.2,334.6,796.2z M334.6,790.8c1.2,0,2.2-0.4,3-1.3c0.8-0.9,1.3-2.1,1.3-3.7c0-1.6-0.4-2.8-1.2-3.7
					c-0.8-0.9-1.8-1.3-3-1.3s-2.2,0.4-3,1.3c-0.8,0.8-1.2,2.1-1.2,3.7c0,1.6,0.4,2.8,1.2,3.7S333.5,790.8,334.6,790.8z M347.2,785.8
					c0-2.1,0.4-3.9,1.2-5.4c0.8-1.6,1.9-2.8,3.2-3.6c1.3-0.8,2.8-1.3,4.5-1.3c1.3,0,2.5,0.3,3.6,0.8c1.1,0.6,2,1.3,2.6,2.2v-9.3h6.2
					v26.6h-6.2V793c-0.6,1-1.4,1.7-2.5,2.3s-2.3,0.9-3.7,0.9c-1.7,0-3.2-0.4-4.5-1.3c-1.3-0.9-2.4-2.1-3.2-3.6
					C347.6,789.7,347.2,787.9,347.2,785.8z M362.2,785.8c0-1.5-0.4-2.7-1.3-3.6c-0.8-0.9-1.9-1.3-3.1-1.3s-2.3,0.4-3.1,1.3
					c-0.8,0.9-1.3,2.1-1.3,3.6s0.4,2.8,1.3,3.7s1.9,1.3,3.1,1.3s2.3-0.4,3.1-1.3C361.8,788.6,362.2,787.4,362.2,785.8z M371.6,785.8
					c0-2.1,0.4-3.9,1.2-5.4c0.8-1.6,1.9-2.8,3.2-3.6c1.3-0.8,2.8-1.3,4.5-1.3c1.4,0,2.7,0.3,3.7,0.9c1.1,0.6,1.9,1.3,2.5,2.3v-2.8
					h6.2V796h-6.2v-3c-0.6,0.9-1.4,1.7-2.5,2.3s-2.3,0.9-3.7,0.9c-1.6,0-3.1-0.4-4.5-1.3c-1.3-0.9-2.4-2.1-3.2-3.6
					C372,789.7,371.6,787.9,371.6,785.8z M386.7,785.8c0-1.5-0.4-2.7-1.3-3.6c-0.8-0.9-1.9-1.3-3.1-1.3s-2.3,0.4-3.1,1.3
					c-0.8,0.9-1.3,2.1-1.3,3.6s0.4,2.8,1.3,3.7s1.9,1.3,3.1,1.3s2.3-0.4,3.1-1.3C386.2,788.6,386.7,787.4,386.7,785.8z M411.1,778.6
					c0.6-0.9,1.4-1.7,2.5-2.3s2.3-0.9,3.7-0.9c1.7,0,3.2,0.4,4.5,1.3c1.3,0.8,2.4,2,3.2,3.6c0.8,1.6,1.2,3.4,1.2,5.4
					c0,2.1-0.4,3.9-1.2,5.5c-0.8,1.6-1.8,2.8-3.2,3.6c-1.3,0.8-2.8,1.3-4.5,1.3c-1.4,0-2.6-0.3-3.7-0.9c-1.1-0.6-1.9-1.3-2.5-2.2
					v12.4h-6.2v-29.7h6.2V778.6z M419.9,785.8c0-1.5-0.4-2.7-1.3-3.6c-0.8-0.9-1.9-1.3-3.1-1.3s-2.3,0.4-3.1,1.3
					c-0.8,0.9-1.3,2.1-1.3,3.6s0.4,2.7,1.3,3.6c0.9,0.9,1.9,1.3,3.1,1.3s2.3-0.4,3.1-1.3C419.4,788.6,419.9,787.3,419.9,785.8z
					 M448.3,785.5c0,0.6,0,1.2-0.1,1.8h-13.9c0.1,1.2,0.5,2.2,1.2,2.9c0.7,0.6,1.6,1,2.6,1c1.5,0,2.6-0.6,3.2-1.9h6.6
					c-0.3,1.3-0.9,2.5-1.8,3.6s-2,1.9-3.3,2.5s-2.8,0.9-4.4,0.9c-2,0-3.7-0.4-5.3-1.3c-1.5-0.8-2.7-2-3.6-3.6s-1.3-3.4-1.3-5.5
					s0.4-3.9,1.3-5.5s2.1-2.8,3.6-3.6s3.3-1.3,5.3-1.3c1.9,0,3.7,0.4,5.2,1.2s2.7,2,3.5,3.5C447.9,781.7,448.3,783.5,448.3,785.5z
					 M442,783.9c0-1.1-0.4-1.9-1.1-2.5s-1.6-0.9-2.7-0.9c-1,0-1.9,0.3-2.6,0.9c-0.7,0.6-1.1,1.5-1.3,2.6L442,783.9L442,783.9z
					 M457.7,779.1c0.7-1.1,1.6-2,2.7-2.6s2.3-1,3.6-1v6.5h-1.7c-1.5,0-2.7,0.3-3.5,1c-0.8,0.6-1.2,1.8-1.2,3.5v9.3h-6.2v-20.1h6.2
					v3.4H457.7z M474.6,775.5c1.4,0,2.7,0.3,3.7,0.9c1.1,0.6,1.9,1.3,2.5,2.3v-2.8h6.2V796c0,1.8-0.4,3.5-1.1,5s-1.8,2.7-3.3,3.6
					c-1.5,0.9-3.3,1.3-5.6,1.3c-3,0-5.4-0.7-7.2-2.1c-1.8-1.4-2.9-3.3-3.2-5.7h6.1c0.2,0.8,0.6,1.4,1.4,1.8c0.7,0.5,1.6,0.7,2.7,0.7
					c1.3,0,2.3-0.4,3-1.1c0.8-0.7,1.2-1.9,1.2-3.5v-3c-0.6,0.9-1.4,1.7-2.5,2.3s-2.3,0.9-3.7,0.9c-1.7,0-3.2-0.4-4.5-1.3
					c-1.3-0.9-2.4-2.1-3.2-3.6c-0.8-1.6-1.2-3.4-1.2-5.5s0.4-3.9,1.2-5.4c0.8-1.6,1.9-2.8,3.2-3.6
					C471.4,775.9,472.9,775.5,474.6,775.5z M480.8,785.8c0-1.5-0.4-2.7-1.3-3.6c-0.8-0.9-1.9-1.3-3.1-1.3s-2.3,0.4-3.1,1.3
					c-0.8,0.9-1.3,2.1-1.3,3.6s0.4,2.8,1.3,3.7s1.9,1.3,3.1,1.3s2.3-0.4,3.1-1.3C480.3,788.6,480.8,787.4,480.8,785.8z M511.2,775.8
					v20.1H505v-2.7c-0.6,0.9-1.5,1.6-2.6,2.2c-1.1,0.5-2.2,0.8-3.5,0.8c-1.5,0-2.9-0.3-4.1-1s-2.1-1.7-2.7-3s-1-2.8-1-4.6v-11.7h6.1
					v10.9c0,1.3,0.3,2.4,1,3.1c0.7,0.7,1.6,1.1,2.8,1.1c1.2,0,2.1-0.4,2.8-1.1c0.7-0.7,1-1.8,1-3.1v-10.9L511.2,775.8L511.2,775.8z
					 M527.9,775.6c2.4,0,4.2,0.8,5.6,2.3c1.4,1.5,2.1,3.6,2.1,6.3v11.7h-6.1V785c0-1.3-0.3-2.4-1-3.1c-0.7-0.7-1.6-1.1-2.8-1.1
					s-2.1,0.4-2.8,1.1c-0.7,0.7-1,1.8-1,3.1v10.9h-6.2v-20.1h6.2v2.7c0.6-0.9,1.5-1.6,2.5-2.1C525.4,775.8,526.5,775.6,527.9,775.6z
					 M551.1,790.7v5.2H548c-2.2,0-4-0.5-5.2-1.6s-1.9-2.9-1.9-5.4v-8h-2.4v-5.1h2.4v-4.9h6.2v4.9h4v5.1h-4v8.1c0,0.6,0.1,1,0.4,1.3
					c0.3,0.3,0.8,0.4,1.4,0.4H551.1z M553.3,785.8c0-2.1,0.4-3.9,1.2-5.4c0.8-1.6,1.9-2.8,3.2-3.6s2.8-1.3,4.5-1.3
					c1.4,0,2.7,0.3,3.7,0.9c1.1,0.6,1.9,1.3,2.5,2.3v-2.8h6.2V796h-6.2v-3c-0.6,0.9-1.4,1.7-2.5,2.3s-2.3,0.9-3.7,0.9
					c-1.6,0-3.1-0.4-4.5-1.3c-1.3-0.9-2.4-2.1-3.2-3.6C553.7,789.7,553.3,787.9,553.3,785.8z M568.3,785.8c0-1.5-0.4-2.7-1.3-3.6
					c-0.8-0.9-1.9-1.3-3.1-1.3s-2.3,0.4-3.1,1.3c-0.8,0.9-1.3,2.1-1.3,3.6s0.4,2.8,1.3,3.7c0.9,0.9,1.9,1.3,3.1,1.3s2.3-0.4,3.1-1.3
					C567.9,788.6,568.3,787.4,568.3,785.8z M597.8,790.7v5.2h-3.1c-2.2,0-4-0.5-5.2-1.6s-1.9-2.9-1.9-5.4v-8h-2.4v-5.1h2.4v-4.9h6.2
					v4.9h4v5.1h-4v8.1c0,0.6,0.1,1,0.4,1.3c0.3,0.3,0.8,0.4,1.4,0.4H597.8z M620.1,785.5c0,0.6,0,1.2-0.1,1.8h-13.9
					c0.1,1.2,0.5,2.2,1.2,2.9c0.7,0.6,1.6,1,2.6,1c1.5,0,2.6-0.6,3.2-1.9h6.6c-0.3,1.3-0.9,2.5-1.8,3.6c-0.9,1.1-2,1.9-3.3,2.5
					s-2.8,0.9-4.4,0.9c-2,0-3.7-0.4-5.3-1.3c-1.5-0.8-2.7-2-3.6-3.6c-0.9-1.6-1.3-3.4-1.3-5.5s0.4-3.9,1.3-5.5
					c0.9-1.6,2.1-2.8,3.6-3.6s3.3-1.3,5.3-1.3c1.9,0,3.7,0.4,5.2,1.2s2.7,2,3.5,3.5C619.7,781.7,620.1,783.5,620.1,785.5z
					 M613.8,783.9c0-1.1-0.4-1.9-1.1-2.5c-0.7-0.6-1.6-0.9-2.7-0.9c-1,0-1.9,0.3-2.6,0.9c-0.7,0.6-1.1,1.5-1.3,2.6L613.8,783.9
					L613.8,783.9z M649,775.6c2.5,0,4.5,0.8,5.9,2.3c1.5,1.5,2.2,3.6,2.2,6.3v11.7H651V785c0-1.3-0.3-2.3-1-3s-1.6-1.1-2.8-1.1
					s-2.1,0.4-2.8,1.1c-0.7,0.7-1,1.7-1,3v10.9h-6.1V785c0-1.3-0.3-2.3-1-3s-1.6-1.1-2.8-1.1s-2.1,0.4-2.8,1.1c-0.7,0.7-1,1.7-1,3
					v10.9h-6.2v-20.1h6.2v2.5c0.6-0.8,1.4-1.5,2.4-2s2.1-0.8,3.4-0.8c1.5,0,2.9,0.3,4,1c1.2,0.6,2.1,1.6,2.8,2.8
					c0.7-1.1,1.6-2,2.8-2.7S647.6,775.6,649,775.6z M689,775.8v20.1h-6.2v-2.7c-0.6,0.9-1.5,1.6-2.6,2.2c-1.1,0.5-2.2,0.8-3.5,0.8
					c-1.5,0-2.9-0.3-4.1-1c-1.2-0.7-2.1-1.7-2.7-3c-0.6-1.3-1-2.8-1-4.6v-11.7h6.1v10.9c0,1.3,0.3,2.4,1,3.1
					c0.7,0.7,1.6,1.1,2.8,1.1s2.1-0.4,2.8-1.1c0.7-0.7,1-1.8,1-3.1v-10.9L689,775.8L689,775.8z M719,775.6c2.5,0,4.5,0.8,5.9,2.3
					c1.5,1.5,2.2,3.6,2.2,6.3v11.7H721V785c0-1.3-0.3-2.3-1-3s-1.6-1.1-2.8-1.1s-2.1,0.4-2.8,1.1c-0.7,0.7-1,1.7-1,3v10.9h-6.1V785
					c0-1.3-0.3-2.3-1-3s-1.6-1.1-2.8-1.1s-2.1,0.4-2.8,1.1c-0.7,0.7-1,1.7-1,3v10.9h-6.2v-20.1h6.2v2.5c0.6-0.8,1.4-1.5,2.4-2
					s2.1-0.8,3.4-0.8c1.5,0,2.9,0.3,4,1c1.2,0.6,2.1,1.6,2.8,2.8c0.7-1.1,1.6-2,2.8-2.7C716.3,775.9,717.6,775.6,719,775.6z
					 M730.3,785.8c0-2.1,0.4-3.9,1.2-5.4c0.8-1.6,1.9-2.8,3.2-3.6s2.8-1.3,4.5-1.3c1.4,0,2.7,0.3,3.7,0.9c1.1,0.6,1.9,1.3,2.5,2.3
					v-2.8h6.2V796h-6.2v-3c-0.6,0.9-1.4,1.7-2.5,2.3s-2.3,0.9-3.7,0.9c-1.6,0-3.1-0.4-4.5-1.3c-1.3-0.9-2.4-2.1-3.2-3.6
					C730.6,789.7,730.3,787.9,730.3,785.8z M745.3,785.8c0-1.5-0.4-2.7-1.3-3.6c-0.8-0.9-1.9-1.3-3.1-1.3c-1.2,0-2.3,0.4-3.1,1.3
					c-0.8,0.9-1.3,2.1-1.3,3.6s0.4,2.8,1.3,3.7c0.9,0.9,1.9,1.3,3.1,1.3c1.2,0,2.3-0.4,3.1-1.3C744.9,788.6,745.3,787.4,745.3,785.8
					z M310.4,833.1c0.7-1.1,1.6-2,2.7-2.6s2.3-1,3.6-1v6.5H315c-1.5,0-2.7,0.3-3.5,1c-0.8,0.6-1.2,1.8-1.2,3.5v9.3h-6.2v-20.1h6.2
					v3.4H310.4z M338.6,839.5c0,0.6,0,1.2-0.1,1.8h-13.9c0.1,1.2,0.5,2.2,1.2,2.9c0.7,0.6,1.6,1,2.6,1c1.5,0,2.6-0.6,3.2-1.9h6.6
					c-0.3,1.3-0.9,2.5-1.8,3.6s-2,1.9-3.3,2.5s-2.8,0.9-4.4,0.9c-2,0-3.7-0.4-5.3-1.3c-1.5-0.8-2.7-2-3.6-3.6s-1.3-3.4-1.3-5.5
					s0.4-3.9,1.3-5.5s2.1-2.8,3.6-3.6s3.3-1.3,5.3-1.3c1.9,0,3.7,0.4,5.2,1.2s2.7,2,3.5,3.5C338.1,835.7,338.6,837.5,338.6,839.5z
					 M332.3,837.9c0-1.1-0.4-1.9-1.1-2.5s-1.6-0.9-2.7-0.9c-1,0-1.9,0.3-2.6,0.9c-0.7,0.6-1.1,1.5-1.3,2.6L332.3,837.9L332.3,837.9z
					 M350,850.2c-1.8,0-3.3-0.3-4.7-0.9s-2.4-1.4-3.2-2.4c-0.8-1.1-1.2-2.2-1.3-3.5h6.1c0.1,0.7,0.4,1.3,1,1.7s1.3,0.6,2.1,0.6
					c0.8,0,1.4-0.1,1.8-0.4c0.4-0.3,0.6-0.7,0.6-1.2c0-0.6-0.3-1-0.9-1.3s-1.6-0.6-2.9-0.9c-1.4-0.3-2.6-0.7-3.6-1
					c-1-0.4-1.8-1-2.5-1.8s-1-1.9-1-3.3c0-1.2,0.3-2.2,0.9-3.1c0.6-1,1.6-1.7,2.8-2.3c1.2-0.6,2.7-0.8,4.4-0.8
					c2.5,0,4.5,0.6,5.9,1.9c1.5,1.2,2.3,2.9,2.5,5h-5.7c-0.1-0.7-0.4-1.2-0.9-1.7c-0.5-0.4-1.2-0.6-2-0.6c-0.7,0-1.3,0.1-1.7,0.4
					c-0.4,0.3-0.6,0.6-0.6,1.1c0,0.6,0.3,1,0.9,1.3s1.6,0.6,2.9,0.9c1.5,0.4,2.7,0.8,3.6,1.2s1.8,1,2.4,1.8c0.7,0.8,1.1,1.9,1.1,3.3
					c0,1.2-0.3,2.2-1,3.2c-0.6,0.9-1.6,1.6-2.8,2.2C353,849.9,351.6,850.2,350,850.2z M368,832.6c0.6-0.9,1.4-1.7,2.5-2.3
					s2.3-0.9,3.7-0.9c1.7,0,3.2,0.4,4.5,1.3c1.3,0.8,2.4,2,3.2,3.6c0.8,1.6,1.2,3.4,1.2,5.4c0,2.1-0.4,3.9-1.2,5.5
					c-0.8,1.6-1.8,2.8-3.2,3.6c-1.3,0.8-2.8,1.3-4.5,1.3c-1.4,0-2.6-0.3-3.7-0.9c-1.1-0.6-1.9-1.3-2.5-2.2v12.4h-6.2v-29.7h6.2
					V832.6z M376.8,839.8c0-1.5-0.4-2.7-1.3-3.6c-0.8-0.9-1.9-1.3-3.1-1.3s-2.3,0.4-3.1,1.3c-0.8,0.9-1.3,2.1-1.3,3.6
					s0.4,2.7,1.3,3.6c0.9,0.9,1.9,1.3,3.1,1.3s2.3-0.4,3.1-1.3C376.4,842.6,376.8,841.3,376.8,839.8z M395.5,850.2
					c-2,0-3.7-0.4-5.3-1.3c-1.6-0.8-2.8-2-3.7-3.6c-0.9-1.6-1.3-3.4-1.3-5.5s0.5-3.9,1.4-5.4c0.9-1.6,2.2-2.8,3.7-3.6
					c1.6-0.8,3.4-1.3,5.3-1.3c2,0,3.7,0.4,5.3,1.3c1.6,0.8,2.8,2.1,3.7,3.6c0.9,1.6,1.4,3.4,1.4,5.4c0,2.1-0.5,3.9-1.4,5.5
					s-2.2,2.8-3.8,3.6C399.2,849.8,397.4,850.2,395.5,850.2z M395.5,844.8c1.2,0,2.2-0.4,3-1.3c0.8-0.9,1.3-2.1,1.3-3.7
					c0-1.6-0.4-2.8-1.2-3.7c-0.8-0.9-1.8-1.3-3-1.3s-2.2,0.4-3,1.3c-0.8,0.8-1.2,2.1-1.2,3.7c0,1.6,0.4,2.8,1.2,3.7
					C393.3,844.4,394.3,844.8,395.5,844.8z M417.4,850.2c-1.8,0-3.3-0.3-4.7-0.9c-1.4-0.6-2.4-1.4-3.2-2.4c-0.8-1.1-1.2-2.2-1.3-3.5
					h6.1c0.1,0.7,0.4,1.3,1,1.7s1.3,0.6,2.1,0.6c0.8,0,1.4-0.1,1.8-0.4c0.4-0.3,0.6-0.7,0.6-1.2c0-0.6-0.3-1-0.9-1.3
					s-1.6-0.6-2.9-0.9c-1.4-0.3-2.6-0.7-3.6-1c-1-0.4-1.8-1-2.5-1.8s-1-1.9-1-3.3c0-1.2,0.3-2.2,0.9-3.1c0.6-1,1.6-1.7,2.8-2.3
					c1.2-0.6,2.7-0.8,4.4-0.8c2.5,0,4.5,0.6,5.9,1.9c1.5,1.2,2.3,2.9,2.5,5h-5.7c-0.1-0.7-0.4-1.2-0.9-1.7c-0.5-0.4-1.2-0.6-2-0.6
					c-0.7,0-1.3,0.1-1.7,0.4c-0.4,0.3-0.6,0.6-0.6,1.1c0,0.6,0.3,1,0.9,1.3s1.6,0.6,2.9,0.9c1.5,0.4,2.7,0.8,3.6,1.2s1.8,1,2.4,1.8
					c0.7,0.8,1.1,1.9,1.1,3.3c0,1.2-0.3,2.2-1,3.2c-0.6,0.9-1.6,1.6-2.8,2.2C420.5,849.9,419,850.2,417.4,850.2z M440.5,844.7v5.2
					h-3.1c-2.2,0-4-0.5-5.2-1.6s-1.9-2.9-1.9-5.4v-8h-2.4v-5.1h2.4v-4.9h6.2v4.9h4v5.1h-4v8.1c0,0.6,0.1,1,0.4,1.3s0.8,0.4,1.4,0.4
					H440.5z M442.7,839.8c0-2.1,0.4-3.9,1.2-5.4c0.8-1.6,1.9-2.8,3.2-3.6c1.3-0.8,2.8-1.3,4.5-1.3c1.4,0,2.7,0.3,3.7,0.9
					c1.1,0.6,1.9,1.3,2.5,2.3v-2.8h6.2V850h-6.2v-3c-0.6,0.9-1.4,1.7-2.5,2.3s-2.3,0.9-3.7,0.9c-1.6,0-3.1-0.4-4.5-1.3
					c-1.3-0.9-2.4-2.1-3.2-3.6C443.1,843.7,442.7,841.9,442.7,839.8z M457.8,839.8c0-1.5-0.4-2.7-1.3-3.6c-0.8-0.9-1.9-1.3-3.1-1.3
					s-2.3,0.4-3.1,1.3c-0.8,0.9-1.3,2.1-1.3,3.6s0.4,2.8,1.3,3.7s1.9,1.3,3.1,1.3s2.3-0.4,3.1-1.3
					C457.3,842.6,457.8,841.4,457.8,839.8z M471.3,850.2c-1.1,0-2-0.3-2.7-0.9c-0.7-0.6-1-1.4-1-2.4s0.3-1.8,1-2.4
					c0.7-0.6,1.6-1,2.7-1s1.9,0.3,2.6,1c0.7,0.6,1,1.5,1,2.4s-0.3,1.7-1,2.4C473.2,849.9,472.3,850.2,471.3,850.2z"/>
				<path class="st24" d="M313.7,894.2h-7.3l-1.3,3.7h-2.3l6-16.6h2.5l6,16.6H315L313.7,894.2z M313.1,892.4l-3-8.4l-3,8.4H313.1z
					 M322.2,887.2c0.4-0.8,1.1-1.4,1.9-1.9c0.9-0.5,1.9-0.8,3-0.8c1.2,0,2.2,0.3,3.2,0.8c1,0.6,1.7,1.4,2.3,2.4
					c0.5,1,0.8,2.2,0.8,3.5s-0.3,2.5-0.8,3.6c-0.5,1-1.3,1.8-2.3,2.4c-0.9,0.6-2,0.9-3.2,0.9c-1.1,0-2.1-0.3-3-0.8
					c-0.8-0.5-1.5-1.1-1.9-1.9v8.7H320v-19.4h2.2V887.2z M331.1,891.3c0-1-0.2-1.9-0.6-2.6c-0.4-0.7-0.9-1.3-1.6-1.7
					s-1.4-0.6-2.2-0.6c-0.8,0-1.5,0.2-2.2,0.6c-0.7,0.4-1.2,1-1.6,1.7s-0.6,1.6-0.6,2.6s0.2,1.9,0.6,2.6c0.4,0.7,1,1.3,1.6,1.7
					c0.7,0.4,1.4,0.6,2.2,0.6c0.8,0,1.6-0.2,2.2-0.6c0.7-0.4,1.2-1,1.6-1.7C330.9,893.1,331.1,892.3,331.1,891.3z M338.4,886.9
					c0.4-0.8,0.9-1.3,1.6-1.8c0.7-0.4,1.6-0.6,2.6-0.6v2.3H342c-2.4,0-3.7,1.3-3.7,4v7.2h-2.2v-13.2h2.2v2.1H338.4z M357.2,890.8
					c0,0.4,0,0.9-0.1,1.3h-10.5c0.1,1.3,0.5,2.3,1.3,3.1c0.8,0.7,1.8,1.1,3,1.1c0.9,0,1.7-0.2,2.4-0.7c0.6-0.4,1.1-1,1.3-1.8h2.4
					c-0.4,1.3-1.1,2.3-2.1,3.1c-1.1,0.8-2.4,1.2-3.9,1.2c-1.2,0-2.4-0.3-3.4-0.8c-1-0.6-1.7-1.4-2.3-2.4c-0.6-1-0.8-2.2-0.8-3.6
					c0-1.4,0.3-2.6,0.8-3.6s1.3-1.8,2.3-2.4c1-0.6,2.1-0.8,3.4-0.8c1.2,0,2.4,0.3,3.3,0.8c1,0.5,1.7,1.3,2.2,2.3
					C356.9,888.5,357.2,889.6,357.2,890.8z M354.9,890.3c0-0.8-0.2-1.5-0.6-2.1s-0.9-1.1-1.5-1.4c-0.6-0.3-1.3-0.5-2.1-0.5
					c-1.1,0-2,0.4-2.8,1.1c-0.8,0.7-1.2,1.7-1.3,2.9H354.9z M366.5,884.5c1.6,0,2.9,0.5,3.9,1.5s1.5,2.3,1.5,4.2v7.8h-2.2v-7.4
					c0-1.3-0.3-2.3-1-3s-1.6-1.1-2.7-1.1c-1.2,0-2.1,0.4-2.8,1.1c-0.7,0.7-1,1.8-1,3.1v7.3H360v-13.2h2.2v1.9c0.4-0.7,1-1.2,1.8-1.6
					C364.8,884.7,365.6,884.5,366.5,884.5z M374.6,891.3c0-1.3,0.3-2.5,0.8-3.5s1.3-1.8,2.2-2.4c1-0.6,2-0.8,3.2-0.8
					c1,0,2,0.2,2.9,0.7s1.6,1.1,2,1.9v-7h2.2V898h-2.2v-2.5c-0.4,0.8-1.1,1.4-1.9,1.9s-1.8,0.8-3,0.8s-2.2-0.3-3.2-0.9
					c-0.9-0.6-1.7-1.4-2.2-2.4C374.9,893.8,374.6,892.6,374.6,891.3z M385.7,891.3c0-1-0.2-1.9-0.6-2.6c-0.4-0.7-0.9-1.3-1.6-1.7
					s-1.4-0.6-2.2-0.6c-0.8,0-1.6,0.2-2.2,0.6c-0.7,0.4-1.2,1-1.6,1.7s-0.6,1.6-0.6,2.6s0.2,1.9,0.6,2.6c0.4,0.7,0.9,1.3,1.6,1.7
					s1.4,0.6,2.2,0.6c0.8,0,1.6-0.2,2.2-0.6c0.7-0.4,1.2-1,1.6-1.7C385.5,893.1,385.7,892.3,385.7,891.3z M390.8,891.3
					c0-1.3,0.3-2.5,0.8-3.5s1.3-1.8,2.2-2.4c1-0.6,2-0.8,3.2-0.8s2.2,0.3,3,0.8s1.5,1.1,1.9,1.9v-2.4h2.2v13.2H402v-2.4
					c-0.4,0.8-1.1,1.4-1.9,1.9s-1.8,0.8-3,0.8s-2.2-0.3-3.2-0.9c-0.9-0.6-1.7-1.4-2.2-2.4C391.1,893.8,390.8,892.6,390.8,891.3z
					 M402,891.3c0-1-0.2-1.9-0.6-2.6c-0.4-0.7-0.9-1.3-1.6-1.7s-1.4-0.6-2.2-0.6c-0.8,0-1.6,0.2-2.2,0.6c-0.7,0.4-1.2,1-1.6,1.7
					s-0.6,1.6-0.6,2.6s0.2,1.9,0.6,2.6c0.4,0.7,0.9,1.3,1.6,1.7s1.4,0.6,2.2,0.6c0.8,0,1.6-0.2,2.2-0.6c0.7-0.4,1.2-1,1.6-1.7
					C401.8,893.1,402,892.3,402,891.3z M426.3,890.8c0,0.4,0,0.9-0.1,1.3h-10.5c0.1,1.3,0.5,2.3,1.3,3.1c0.8,0.7,1.8,1.1,3,1.1
					c0.9,0,1.7-0.2,2.4-0.7c0.6-0.4,1.1-1,1.3-1.8h2.4c-0.4,1.3-1.1,2.3-2.1,3.1c-1.1,0.8-2.4,1.2-3.9,1.2c-1.2,0-2.4-0.3-3.4-0.8
					c-1-0.6-1.7-1.4-2.3-2.4c-0.6-1-0.8-2.2-0.8-3.6c0-1.4,0.3-2.6,0.8-3.6s1.3-1.8,2.3-2.4c1-0.6,2.1-0.8,3.4-0.8
					c1.2,0,2.4,0.3,3.3,0.8c1,0.5,1.7,1.3,2.2,2.3C426,888.5,426.3,889.6,426.3,890.8z M424,890.3c0-0.8-0.2-1.5-0.6-2.1
					s-0.9-1.1-1.5-1.4c-0.6-0.3-1.3-0.5-2.1-0.5c-1.1,0-2,0.4-2.8,1.1c-0.8,0.7-1.2,1.7-1.3,2.9H424z M434.7,891.3
					c0-1.4,0.3-2.5,0.8-3.6c0.5-1,1.3-1.8,2.3-2.4c1-0.6,2.1-0.8,3.3-0.8c1.6,0,2.9,0.4,4,1.2s1.8,1.9,2.1,3.3h-2.4
					c-0.2-0.8-0.7-1.4-1.3-1.9c-0.6-0.5-1.4-0.7-2.4-0.7c-1.2,0-2.3,0.4-3,1.3c-0.8,0.8-1.2,2-1.2,3.6s0.4,2.8,1.2,3.7
					c0.8,0.9,1.8,1.3,3,1.3c1,0,1.8-0.2,2.4-0.7c0.6-0.4,1.1-1.1,1.3-1.9h2.4c-0.4,1.3-1.1,2.4-2.1,3.2c-1.1,0.8-2.4,1.2-4,1.2
					c-1.2,0-2.4-0.3-3.3-0.8c-1-0.6-1.7-1.4-2.3-2.4S434.7,892.7,434.7,891.3z M455.9,898.1c-1.2,0-2.4-0.3-3.4-0.8
					c-1-0.6-1.8-1.4-2.4-2.4s-0.8-2.2-0.8-3.6c0-1.3,0.3-2.5,0.9-3.6c0.6-1,1.4-1.8,2.4-2.4c1-0.6,2.1-0.8,3.4-0.8
					c1.2,0,2.4,0.3,3.4,0.8c1,0.6,1.8,1.3,2.4,2.4c0.6,1,0.9,2.2,0.9,3.6c0,1.4-0.3,2.6-0.9,3.6s-1.4,1.8-2.4,2.4
					C458.2,897.8,457.1,898.1,455.9,898.1z M455.9,896.2c0.8,0,1.5-0.2,2.2-0.6c0.7-0.4,1.2-0.9,1.7-1.7c0.4-0.7,0.6-1.6,0.6-2.7
					c0-1.1-0.2-2-0.6-2.7s-1-1.3-1.6-1.6c-0.7-0.4-1.4-0.5-2.2-0.5c-0.8,0-1.5,0.2-2.2,0.5s-1.2,0.9-1.6,1.6
					c-0.4,0.7-0.6,1.6-0.6,2.7c0,1.1,0.2,2,0.6,2.7s0.9,1.3,1.6,1.7C454.4,896,455.1,896.2,455.9,896.2z M481.3,884.5
					c1,0,1.9,0.2,2.7,0.7c0.8,0.4,1.4,1,1.9,1.9c0.5,0.8,0.7,1.9,0.7,3.1v7.8h-2.2v-7.4c0-1.3-0.3-2.3-1-3c-0.6-0.7-1.5-1.1-2.6-1.1
					s-2,0.4-2.7,1.1c-0.7,0.7-1,1.8-1,3.1v7.3H475v-7.4c0-1.3-0.3-2.3-1-3c-0.6-0.7-1.5-1.1-2.6-1.1s-2,0.4-2.7,1.1
					c-0.7,0.7-1,1.8-1,3.1v7.3h-2.2v-13.2h2.2v1.9c0.4-0.7,1-1.2,1.7-1.6c0.7-0.4,1.5-0.5,2.4-0.5c1.1,0,2.1,0.3,2.9,0.7
					c0.8,0.5,1.5,1.2,1.9,2.2c0.4-0.9,1-1.6,1.8-2.2C479.3,884.7,480.2,884.5,481.3,884.5z M492.4,887.2c0.4-0.8,1.1-1.4,1.9-1.9
					c0.9-0.5,1.9-0.8,3-0.8c1.2,0,2.2,0.3,3.2,0.8c1,0.6,1.7,1.4,2.3,2.4c0.5,1,0.8,2.2,0.8,3.5s-0.3,2.5-0.8,3.6
					c-0.5,1-1.3,1.8-2.3,2.4c-0.9,0.6-2,0.9-3.2,0.9c-1.1,0-2.1-0.3-3-0.8c-0.8-0.5-1.5-1.1-1.9-1.9v8.7h-2.2v-19.4h2.2V887.2z
					 M501.3,891.3c0-1-0.2-1.9-0.6-2.6c-0.4-0.7-0.9-1.3-1.6-1.7s-1.4-0.6-2.2-0.6c-0.8,0-1.5,0.2-2.2,0.6c-0.7,0.4-1.2,1-1.6,1.7
					s-0.6,1.6-0.6,2.6s0.2,1.9,0.6,2.6c0.4,0.7,1,1.3,1.6,1.7c0.7,0.4,1.4,0.6,2.2,0.6c0.8,0,1.6-0.2,2.2-0.6c0.7-0.4,1.2-1,1.6-1.7
					C501.1,893.1,501.3,892.3,501.3,891.3z M505.6,891.3c0-1.3,0.3-2.5,0.8-3.5s1.3-1.8,2.2-2.4c1-0.6,2-0.8,3.2-0.8
					c1.2,0,2.2,0.3,3,0.8c0.8,0.5,1.5,1.1,1.9,1.9v-2.4h2.2v13.2h-2.2v-2.4c-0.4,0.8-1.1,1.4-1.9,1.9c-0.8,0.5-1.8,0.8-3,0.8
					s-2.2-0.3-3.2-0.9c-0.9-0.6-1.7-1.4-2.2-2.4C505.9,893.8,505.6,892.6,505.6,891.3z M516.7,891.3c0-1-0.2-1.9-0.6-2.6
					c-0.4-0.7-0.9-1.3-1.6-1.7c-0.7-0.4-1.4-0.6-2.2-0.6s-1.6,0.2-2.2,0.6c-0.7,0.4-1.2,1-1.6,1.7s-0.6,1.6-0.6,2.6s0.2,1.9,0.6,2.6
					c0.4,0.7,0.9,1.3,1.6,1.7s1.4,0.6,2.2,0.6c0.8,0,1.6-0.2,2.2-0.6c0.7-0.4,1.2-1,1.6-1.7C516.5,893.1,516.7,892.3,516.7,891.3z
					 M524.8,886.9c0.4-0.8,0.9-1.3,1.6-1.8c0.7-0.4,1.6-0.6,2.6-0.6v2.3h-0.6c-2.4,0-3.7,1.3-3.7,4v7.2h-2.2v-13.2h2.2v2.1H524.8z
					 M534.3,886.5v7.8c0,0.6,0.1,1.1,0.4,1.4c0.3,0.3,0.7,0.4,1.4,0.4h1.6v1.8h-2c-1.2,0-2.1-0.3-2.7-0.8c-0.6-0.6-0.9-1.5-0.9-2.8
					v-7.8h-1.7v-1.8h1.7v-3.3h2.2v3.3h3.4v1.8L534.3,886.5L534.3,886.5z M541.5,882.6c-0.4,0-0.8-0.1-1.1-0.4
					c-0.3-0.3-0.4-0.6-0.4-1.1c0-0.4,0.1-0.8,0.4-1c0.3-0.3,0.6-0.4,1.1-0.4c0.4,0,0.7,0.1,1,0.4c0.3,0.3,0.4,0.6,0.4,1
					s-0.1,0.8-0.4,1.1C542.2,882.5,541.9,882.6,541.5,882.6z M542.5,884.7v13.2h-2.2v-13.2H542.5z M548.4,880.1v17.8h-2.2v-17.8
					H548.4z M558.7,884.5c1,0,1.9,0.2,2.7,0.7c0.8,0.4,1.4,1,1.9,1.9c0.5,0.8,0.7,1.9,0.7,3.1v7.8h-2.2v-7.4c0-1.3-0.3-2.3-1-3
					s-1.6-1.1-2.7-1.1c-1.2,0-2.1,0.4-2.8,1.1c-0.7,0.7-1,1.8-1,3.1v7.3h-2.2v-17.8h2.2v6.5c0.4-0.7,1-1.2,1.8-1.6
					S557.7,884.5,558.7,884.5z M579.5,890.8c0,0.4,0,0.9-0.1,1.3h-10.5c0.1,1.3,0.5,2.3,1.3,3.1c0.8,0.7,1.8,1.1,3,1.1
					c0.9,0,1.7-0.2,2.4-0.7c0.6-0.4,1.1-1,1.3-1.8h2.4c-0.4,1.3-1.1,2.3-2.1,3.1c-1.1,0.8-2.4,1.2-3.9,1.2c-1.2,0-2.4-0.3-3.4-0.8
					c-1-0.6-1.7-1.4-2.3-2.4s-0.8-2.2-0.8-3.6c0-1.4,0.3-2.6,0.8-3.6s1.3-1.8,2.3-2.4c1-0.6,2.1-0.8,3.4-0.8c1.2,0,2.4,0.3,3.3,0.8
					c1,0.5,1.7,1.3,2.2,2.3C579.2,888.5,579.5,889.6,579.5,890.8z M577.2,890.3c0-0.8-0.2-1.5-0.6-2.1c-0.4-0.6-0.9-1.1-1.5-1.4
					c-0.6-0.3-1.3-0.5-2.1-0.5c-1.1,0-2,0.4-2.8,1.1c-0.8,0.7-1.2,1.7-1.3,2.9H577.2z M588,891.3c0-1.4,0.3-2.5,0.8-3.6
					c0.5-1,1.3-1.8,2.3-2.4c1-0.6,2.1-0.8,3.3-0.8c1.6,0,2.9,0.4,4,1.2s1.8,1.9,2.1,3.3h-2.4c-0.2-0.8-0.7-1.4-1.3-1.9
					s-1.4-0.7-2.4-0.7c-1.2,0-2.3,0.4-3,1.3c-0.8,0.8-1.2,2-1.2,3.6s0.4,2.8,1.2,3.7s1.8,1.3,3,1.3c1,0,1.8-0.2,2.4-0.7
					c0.6-0.4,1.1-1.1,1.3-1.9h2.4c-0.4,1.3-1.1,2.4-2.1,3.2c-1.1,0.8-2.4,1.2-4,1.2c-1.2,0-2.4-0.3-3.3-0.8c-1-0.6-1.7-1.4-2.3-2.4
					S588,892.7,588,891.3z M609.1,898.1c-1.2,0-2.4-0.3-3.4-0.8c-1-0.6-1.8-1.4-2.4-2.4c-0.6-1-0.8-2.2-0.8-3.6
					c0-1.3,0.3-2.5,0.9-3.6c0.6-1,1.4-1.8,2.4-2.4c1-0.6,2.1-0.8,3.4-0.8s2.4,0.3,3.4,0.8c1,0.6,1.8,1.3,2.4,2.4
					c0.6,1,0.9,2.2,0.9,3.6c0,1.4-0.3,2.6-0.9,3.6c-0.6,1-1.4,1.8-2.4,2.4C611.5,897.8,610.3,898.1,609.1,898.1z M609.1,896.2
					c0.8,0,1.5-0.2,2.2-0.6c0.7-0.4,1.2-0.9,1.7-1.7c0.4-0.7,0.6-1.6,0.6-2.7c0-1.1-0.2-2-0.6-2.7c-0.4-0.7-1-1.3-1.6-1.6
					c-0.7-0.4-1.4-0.5-2.2-0.5s-1.5,0.2-2.2,0.5s-1.2,0.9-1.6,1.6c-0.4,0.7-0.6,1.6-0.6,2.7c0,1.1,0.2,2,0.6,2.7
					c0.4,0.7,0.9,1.3,1.6,1.7C607.6,896,608.3,896.2,609.1,896.2z M625.1,884.5c1.6,0,2.9,0.5,3.9,1.5s1.5,2.3,1.5,4.2v7.8h-2.2
					v-7.4c0-1.3-0.3-2.3-1-3s-1.6-1.1-2.7-1.1c-1.2,0-2.1,0.4-2.8,1.1c-0.7,0.7-1,1.8-1,3.1v7.3h-2.2v-13.2h2.2v1.9
					c0.4-0.7,1-1.2,1.8-1.6C623.4,884.7,624.2,884.5,625.1,884.5z M640.6,884.5c1,0,1.9,0.2,2.7,0.7c0.8,0.4,1.4,1,1.9,1.9
					c0.5,0.8,0.7,1.9,0.7,3.1v7.8h-2.2v-7.4c0-1.3-0.3-2.3-1-3s-1.6-1.1-2.7-1.1c-1.2,0-2.1,0.4-2.8,1.1c-0.7,0.7-1,1.8-1,3.1v7.3
					H634v-17.8h2.2v6.5c0.4-0.7,1-1.2,1.8-1.6S639.6,884.5,640.6,884.5z M661.4,890.8c0,0.4,0,0.9-0.1,1.3h-10.5
					c0.1,1.3,0.5,2.3,1.3,3.1c0.8,0.7,1.8,1.1,3,1.1c0.9,0,1.7-0.2,2.4-0.7c0.6-0.4,1.1-1,1.3-1.8h2.4c-0.4,1.3-1.1,2.3-2.1,3.1
					c-1.1,0.8-2.4,1.2-3.9,1.2c-1.2,0-2.4-0.3-3.4-0.8c-1-0.6-1.7-1.4-2.3-2.4s-0.8-2.2-0.8-3.6c0-1.4,0.3-2.6,0.8-3.6
					s1.3-1.8,2.3-2.4c1-0.6,2.1-0.8,3.4-0.8c1.2,0,2.4,0.3,3.3,0.8c1,0.5,1.7,1.3,2.2,2.3C661.1,888.5,661.4,889.6,661.4,890.8z
					 M659.2,890.3c0-0.8-0.2-1.5-0.6-2.1c-0.4-0.6-0.9-1.1-1.5-1.4c-0.6-0.3-1.3-0.5-2.1-0.5c-1.1,0-2,0.4-2.8,1.1
					c-0.8,0.7-1.2,1.7-1.3,2.9H659.2z M663.5,891.3c0-1.4,0.3-2.5,0.8-3.6c0.5-1,1.3-1.8,2.3-2.4c1-0.6,2.1-0.8,3.3-0.8
					c1.6,0,2.9,0.4,4,1.2s1.8,1.9,2.1,3.3h-2.4c-0.2-0.8-0.7-1.4-1.3-1.9s-1.4-0.7-2.4-0.7c-1.2,0-2.3,0.4-3,1.3
					c-0.8,0.8-1.2,2-1.2,3.6s0.4,2.8,1.2,3.7s1.8,1.3,3,1.3c1,0,1.8-0.2,2.4-0.7c0.6-0.4,1.1-1.1,1.3-1.9h2.4
					c-0.4,1.3-1.1,2.4-2.1,3.2c-1.1,0.8-2.4,1.2-4,1.2c-1.2,0-2.4-0.3-3.3-0.8c-1-0.6-1.7-1.4-2.3-2.4
					C663.7,893.9,663.5,892.7,663.5,891.3z M680,882.6c-0.4,0-0.8-0.1-1.1-0.4c-0.3-0.3-0.4-0.6-0.4-1.1c0-0.4,0.1-0.8,0.4-1
					c0.3-0.3,0.6-0.4,1.1-0.4c0.4,0,0.7,0.1,1,0.4c0.3,0.3,0.4,0.6,0.4,1s-0.1,0.8-0.4,1.1C680.7,882.5,680.4,882.6,680,882.6z
					 M681.1,884.7v13.2h-2.2v-13.2H681.1z M700.6,884.5c1,0,1.9,0.2,2.7,0.7c0.8,0.4,1.4,1,1.9,1.9c0.5,0.8,0.7,1.9,0.7,3.1v7.8
					h-2.2v-7.4c0-1.3-0.3-2.3-1-3c-0.6-0.7-1.5-1.1-2.6-1.1s-2,0.4-2.7,1.1c-0.7,0.7-1,1.8-1,3.1v7.3h-2.2v-7.4c0-1.3-0.3-2.3-1-3
					c-0.6-0.7-1.5-1.1-2.6-1.1s-2,0.4-2.7,1.1c-0.7,0.7-1,1.8-1,3.1v7.3h-2.2v-13.2h2.2v1.9c0.4-0.7,1-1.2,1.7-1.6
					c0.7-0.4,1.5-0.5,2.4-0.5c1.1,0,2.1,0.3,2.9,0.7c0.8,0.5,1.5,1.2,1.9,2.2c0.4-0.9,1-1.6,1.8-2.2
					C698.6,884.7,699.6,884.5,700.6,884.5z M721.5,890.8c0,0.4,0,0.9-0.1,1.3h-10.5c0.1,1.3,0.5,2.3,1.3,3.1c0.8,0.7,1.8,1.1,3,1.1
					c0.9,0,1.7-0.2,2.4-0.7c0.6-0.4,1.1-1,1.3-1.8h2.4c-0.4,1.3-1.1,2.3-2.1,3.1c-1.1,0.8-2.4,1.2-3.9,1.2c-1.2,0-2.4-0.3-3.4-0.8
					c-1-0.6-1.7-1.4-2.3-2.4s-0.8-2.2-0.8-3.6c0-1.4,0.3-2.6,0.8-3.6s1.3-1.8,2.3-2.4c1-0.6,2.1-0.8,3.4-0.8c1.2,0,2.4,0.3,3.3,0.8
					c1,0.5,1.7,1.3,2.2,2.3C721.2,888.5,721.5,889.6,721.5,890.8z M719.2,890.3c0-0.8-0.2-1.5-0.6-2.1c-0.4-0.6-0.9-1.1-1.5-1.4
					c-0.6-0.3-1.3-0.5-2.1-0.5c-1.1,0-2,0.4-2.8,1.1c-0.8,0.7-1.2,1.7-1.3,2.9H719.2z M730.8,884.5c1.6,0,2.9,0.5,3.9,1.5
					s1.5,2.3,1.5,4.2v7.8H734v-7.4c0-1.3-0.3-2.3-1-3s-1.6-1.1-2.7-1.1c-1.2,0-2.1,0.4-2.8,1.1c-0.7,0.7-1,1.8-1,3.1v7.3h-2.2v-13.2
					h2.2v1.9c0.4-0.7,1-1.2,1.8-1.6S729.9,884.5,730.8,884.5z M742.4,886.5v7.8c0,0.6,0.1,1.1,0.4,1.4c0.3,0.3,0.7,0.4,1.4,0.4h1.6
					v1.8h-2c-1.2,0-2.1-0.3-2.7-0.8c-0.6-0.6-0.9-1.5-0.9-2.8v-7.8h-1.7v-1.8h1.7v-3.3h2.2v3.3h3.4v1.8L742.4,886.5L742.4,886.5z
					 M754.2,898.1c-1.2,0-2.4-0.3-3.4-0.8c-1-0.6-1.8-1.4-2.4-2.4c-0.6-1-0.8-2.2-0.8-3.6c0-1.3,0.3-2.5,0.9-3.6
					c0.6-1,1.4-1.8,2.4-2.4c1-0.6,2.1-0.8,3.4-0.8s2.4,0.3,3.4,0.8c1,0.6,1.8,1.3,2.4,2.4c0.6,1,0.9,2.2,0.9,3.6
					c0,1.4-0.3,2.6-0.9,3.6c-0.6,1-1.4,1.8-2.4,2.4C756.6,897.8,755.5,898.1,754.2,898.1z M754.2,896.2c0.8,0,1.5-0.2,2.2-0.6
					c0.7-0.4,1.2-0.9,1.7-1.7c0.4-0.7,0.6-1.6,0.6-2.7c0-1.1-0.2-2-0.6-2.7c-0.4-0.7-1-1.3-1.6-1.6c-0.7-0.4-1.4-0.5-2.2-0.5
					s-1.5,0.2-2.2,0.5s-1.2,0.9-1.6,1.6c-0.4,0.7-0.6,1.6-0.6,2.7c0,1.1,0.2,2,0.6,2.7c0.4,0.7,0.9,1.3,1.6,1.7
					C752.7,896,753.4,896.2,754.2,896.2z M303,927.3c0-1.4,0.3-2.5,0.8-3.6c0.5-1,1.3-1.8,2.3-2.4c1-0.6,2.1-0.8,3.3-0.8
					c1.6,0,2.9,0.4,4,1.2s1.8,1.9,2.1,3.3h-2.4c-0.2-0.8-0.7-1.4-1.3-1.9c-0.6-0.5-1.4-0.7-2.4-0.7c-1.2,0-2.3,0.4-3,1.3
					c-0.8,0.8-1.2,2-1.2,3.6s0.4,2.8,1.2,3.7c0.8,0.9,1.8,1.3,3,1.3c1,0,1.8-0.2,2.4-0.7c0.6-0.4,1.1-1.1,1.3-1.9h2.4
					c-0.4,1.3-1.1,2.4-2.1,3.2c-1.1,0.8-2.4,1.2-4,1.2c-1.2,0-2.4-0.3-3.3-0.8c-1-0.6-1.7-1.4-2.3-2.4S303,928.7,303,927.3z
					 M324.2,934.1c-1.2,0-2.4-0.3-3.4-0.8c-1-0.6-1.8-1.4-2.4-2.4s-0.8-2.2-0.8-3.6c0-1.3,0.3-2.5,0.9-3.6c0.6-1,1.4-1.8,2.4-2.4
					c1-0.6,2.1-0.8,3.4-0.8c1.2,0,2.4,0.3,3.4,0.8c1,0.6,1.8,1.3,2.4,2.3s0.9,2.2,0.9,3.6s-0.3,2.6-0.9,3.6s-1.4,1.8-2.4,2.4
					C326.5,933.8,325.4,934.1,324.2,934.1z M324.2,932.2c0.8,0,1.5-0.2,2.2-0.6c0.7-0.4,1.2-0.9,1.7-1.7c0.4-0.7,0.6-1.6,0.6-2.7
					c0-1.1-0.2-2-0.6-2.7s-1-1.3-1.6-1.6c-0.7-0.4-1.4-0.5-2.2-0.5c-0.8,0-1.5,0.2-2.2,0.5c-0.7,0.4-1.2,0.9-1.6,1.6
					c-0.4,0.7-0.6,1.6-0.6,2.7c0,1.1,0.2,2,0.6,2.7s0.9,1.3,1.6,1.7C322.7,932,323.4,932.2,324.2,932.2z M349.6,920.5
					c1,0,1.9,0.2,2.7,0.7c0.8,0.4,1.4,1,1.9,1.9c0.5,0.8,0.7,1.9,0.7,3.1v7.8h-2.2v-7.4c0-1.3-0.3-2.3-1-3c-0.6-0.7-1.5-1.1-2.6-1.1
					s-2,0.4-2.7,1.1c-0.7,0.7-1,1.8-1,3.1v7.3h-2.2v-7.4c0-1.3-0.3-2.3-1-3c-0.6-0.7-1.5-1.1-2.6-1.1s-2,0.4-2.7,1.1
					c-0.7,0.7-1,1.8-1,3.1v7.3h-2.2v-13.2h2.2v1.9c0.4-0.7,1-1.2,1.7-1.6c0.7-0.4,1.5-0.6,2.4-0.6c1.1,0,2.1,0.3,2.9,0.7
					c0.8,0.5,1.5,1.2,1.9,2.2c0.4-0.9,1-1.7,1.8-2.2C347.6,920.7,348.6,920.5,349.6,920.5z M370.6,934.1c-1.2,0-2.4-0.3-3.4-0.8
					c-1-0.6-1.8-1.4-2.4-2.4s-0.8-2.2-0.8-3.6c0-1.3,0.3-2.5,0.9-3.6c0.6-1,1.4-1.8,2.4-2.4c1-0.6,2.1-0.8,3.4-0.8
					c1.2,0,2.4,0.3,3.4,0.8c1,0.6,1.8,1.3,2.4,2.3s0.9,2.2,0.9,3.6s-0.3,2.6-0.9,3.6s-1.4,1.8-2.4,2.4
					C373,933.8,371.9,934.1,370.6,934.1z M370.6,932.2c0.8,0,1.5-0.2,2.2-0.6c0.7-0.4,1.2-0.9,1.7-1.7c0.4-0.7,0.6-1.6,0.6-2.7
					c0-1.1-0.2-2-0.6-2.7s-1-1.3-1.6-1.6c-0.7-0.4-1.4-0.5-2.2-0.5c-0.8,0-1.5,0.2-2.2,0.5c-0.7,0.4-1.2,0.9-1.6,1.6
					c-0.4,0.7-0.6,1.6-0.6,2.7c0,1.1,0.2,2,0.6,2.7s0.9,1.3,1.6,1.7C369.1,932,369.9,932.2,370.6,932.2z M391.9,920.7v13.2h-2.2V932
					c-0.4,0.7-1,1.2-1.8,1.6c-0.7,0.4-1.6,0.5-2.4,0.5c-1,0-1.9-0.2-2.8-0.6c-0.8-0.4-1.5-1.1-1.9-1.9c-0.5-0.8-0.7-1.9-0.7-3.1
					v-7.7h2.2v7.4c0,1.3,0.3,2.3,1,3s1.6,1,2.7,1c1.2,0,2.1-0.4,2.8-1.1c0.7-0.7,1-1.8,1-3.2v-7.2H391.9z M398.3,922.5v7.8
					c0,0.6,0.1,1.1,0.4,1.4c0.3,0.3,0.7,0.4,1.4,0.4h1.6v1.8h-2c-1.2,0-2.1-0.3-2.7-0.8c-0.6-0.6-0.9-1.5-0.9-2.8v-7.8h-1.7v-1.8
					h1.7v-3.3h2.2v3.3h3.4v1.8L398.3,922.5L398.3,922.5z M406.5,922.9c0.4-0.8,0.9-1.3,1.6-1.8c0.7-0.4,1.6-0.6,2.6-0.6v2.3h-0.6
					c-2.4,0-3.7,1.3-3.7,4v7.2h-2.2v-13.2h2.2v2.1H406.5z M412.5,927.3c0-1.3,0.3-2.5,0.8-3.5s1.3-1.8,2.2-2.4c1-0.6,2-0.8,3.2-0.8
					s2.2,0.3,3,0.8s1.5,1.1,1.9,1.9v-2.4h2.2v13.2h-2.2v-2.4c-0.4,0.8-1.1,1.4-1.9,1.9s-1.8,0.8-3,0.8s-2.2-0.3-3.2-0.9
					c-0.9-0.6-1.7-1.4-2.2-2.4C412.8,929.8,412.5,928.6,412.5,927.3z M423.6,927.3c0-1-0.2-1.9-0.6-2.6c-0.4-0.7-0.9-1.3-1.6-1.7
					s-1.4-0.6-2.2-0.6c-0.8,0-1.6,0.2-2.2,0.6c-0.7,0.4-1.2,1-1.6,1.7s-0.6,1.6-0.6,2.6s0.2,1.9,0.6,2.6c0.4,0.7,0.9,1.3,1.6,1.7
					s1.4,0.6,2.2,0.6c0.8,0,1.6-0.2,2.2-0.6c0.7-0.4,1.2-1,1.6-1.7C423.4,929.1,423.6,928.3,423.6,927.3z M434.2,934.1
					c-1,0-1.9-0.2-2.7-0.5c-0.8-0.3-1.4-0.8-1.9-1.4c-0.5-0.6-0.7-1.3-0.8-2.1h2.3c0.1,0.7,0.4,1.2,0.9,1.6c0.6,0.4,1.3,0.6,2.2,0.6
					c0.8,0,1.5-0.2,2-0.6c0.5-0.4,0.7-0.8,0.7-1.4c0-0.6-0.3-1-0.8-1.3s-1.3-0.6-2.4-0.8c-1-0.3-1.8-0.5-2.4-0.8s-1.1-0.7-1.6-1.2
					c-0.4-0.5-0.6-1.2-0.6-2.1c0-0.7,0.2-1.3,0.6-1.8c0.4-0.6,1-1,1.7-1.3s1.6-0.5,2.5-0.5c1.5,0,2.6,0.4,3.5,1.1
					c0.9,0.7,1.4,1.7,1.4,3h-2.2c0-0.7-0.3-1.2-0.8-1.7c-0.5-0.4-1.2-0.6-2-0.6s-1.4,0.2-1.9,0.5s-0.7,0.8-0.7,1.3
					c0,0.4,0.1,0.8,0.4,1.1s0.6,0.5,1.1,0.7c0.4,0.2,1,0.3,1.8,0.5c0.9,0.3,1.7,0.5,2.3,0.8c0.6,0.2,1.1,0.6,1.5,1.1
					s0.7,1.1,0.7,1.9c0,0.7-0.2,1.4-0.6,1.9c-0.4,0.6-1,1-1.7,1.4S435.1,934.1,434.2,934.1z M450.6,923.2c0.4-0.8,1.1-1.4,1.9-1.9
					c0.9-0.5,1.9-0.8,3-0.8c1.2,0,2.2,0.3,3.2,0.8c1,0.6,1.7,1.3,2.3,2.4c0.5,1,0.8,2.2,0.8,3.5s-0.3,2.5-0.8,3.6
					c-0.5,1-1.3,1.8-2.3,2.4c-0.9,0.6-2,0.9-3.2,0.9c-1.1,0-2.1-0.3-3-0.8c-0.8-0.5-1.5-1.1-1.9-1.9v8.7h-2.2v-19.4h2.2V923.2z
					 M459.6,927.3c0-1-0.2-1.9-0.6-2.6c-0.4-0.7-0.9-1.3-1.6-1.7s-1.4-0.6-2.2-0.6c-0.8,0-1.5,0.2-2.2,0.6c-0.7,0.4-1.2,0.9-1.6,1.7
					c-0.4,0.7-0.6,1.6-0.6,2.6s0.2,1.9,0.6,2.6c0.4,0.7,1,1.3,1.6,1.7c0.7,0.4,1.4,0.6,2.2,0.6c0.8,0,1.6-0.2,2.2-0.6
					c0.7-0.4,1.2-1,1.6-1.7C459.4,929.1,459.6,928.3,459.6,927.3z M476.7,926.8c0,0.4,0,0.9-0.1,1.3h-10.5c0.1,1.3,0.5,2.3,1.3,3.1
					c0.8,0.7,1.8,1.1,3,1.1c0.9,0,1.7-0.2,2.4-0.7c0.6-0.4,1.1-1,1.3-1.8h2.4c-0.4,1.3-1.1,2.3-2.1,3.1c-1.1,0.8-2.4,1.2-3.9,1.2
					c-1.2,0-2.4-0.3-3.4-0.8c-1-0.6-1.7-1.4-2.3-2.4c-0.6-1-0.8-2.2-0.8-3.6s0.3-2.6,0.8-3.6s1.3-1.8,2.3-2.3c1-0.6,2.1-0.8,3.4-0.8
					c1.2,0,2.4,0.3,3.3,0.8c1,0.5,1.7,1.3,2.2,2.3C476.4,924.5,476.7,925.6,476.7,926.8z M474.4,926.3c0-0.8-0.2-1.5-0.6-2.1
					s-0.9-1.1-1.5-1.4c-0.6-0.3-1.3-0.5-2.1-0.5c-1.1,0-2,0.3-2.8,1.1c-0.8,0.7-1.2,1.7-1.3,2.9H474.4z M484.2,934.1
					c-1,0-1.9-0.2-2.7-0.5c-0.8-0.3-1.4-0.8-1.9-1.4c-0.5-0.6-0.7-1.3-0.8-2.1h2.3c0.1,0.7,0.4,1.2,0.9,1.6c0.6,0.4,1.3,0.6,2.2,0.6
					c0.8,0,1.5-0.2,2-0.6c0.5-0.4,0.7-0.8,0.7-1.4c0-0.6-0.3-1-0.8-1.3s-1.3-0.6-2.4-0.8c-1-0.3-1.8-0.5-2.4-0.8s-1.1-0.7-1.6-1.2
					c-0.4-0.5-0.6-1.2-0.6-2.1c0-0.7,0.2-1.3,0.6-1.8c0.4-0.6,1-1,1.7-1.3s1.6-0.5,2.5-0.5c1.5,0,2.6,0.4,3.5,1.1
					c0.9,0.7,1.4,1.7,1.4,3h-2.2c0-0.7-0.3-1.2-0.8-1.7c-0.5-0.4-1.2-0.6-2-0.6s-1.4,0.2-1.9,0.5s-0.7,0.8-0.7,1.3
					c0,0.4,0.1,0.8,0.4,1.1s0.6,0.5,1.1,0.7c0.4,0.2,1,0.3,1.8,0.5c0.9,0.3,1.7,0.5,2.3,0.8c0.6,0.2,1.1,0.6,1.5,1.1
					s0.7,1.1,0.7,1.9c0,0.7-0.2,1.4-0.6,1.9c-0.4,0.6-1,1-1.7,1.4S485.2,934.1,484.2,934.1z M496.8,934.1c-1,0-1.9-0.2-2.7-0.5
					c-0.8-0.3-1.4-0.8-1.9-1.4c-0.5-0.6-0.7-1.3-0.8-2.1h2.3c0.1,0.7,0.4,1.2,0.9,1.6c0.6,0.4,1.3,0.6,2.2,0.6c0.8,0,1.5-0.2,2-0.6
					c0.5-0.4,0.7-0.8,0.7-1.4c0-0.6-0.3-1-0.8-1.3s-1.3-0.6-2.4-0.8c-1-0.3-1.8-0.5-2.4-0.8s-1.1-0.7-1.6-1.2
					c-0.4-0.5-0.6-1.2-0.6-2.1c0-0.7,0.2-1.3,0.6-1.8c0.4-0.6,1-1,1.7-1.3s1.6-0.5,2.5-0.5c1.5,0,2.6,0.4,3.5,1.1
					c0.9,0.7,1.4,1.7,1.4,3h-2.2c0-0.7-0.3-1.2-0.8-1.7c-0.5-0.4-1.2-0.6-2-0.6s-1.4,0.2-1.9,0.5s-0.7,0.8-0.7,1.3
					c0,0.4,0.1,0.8,0.4,1.1s0.6,0.5,1.1,0.7c0.4,0.2,1,0.3,1.8,0.5c0.9,0.3,1.7,0.5,2.3,0.8c0.6,0.2,1.1,0.6,1.5,1.1
					s0.7,1.1,0.7,1.9c0,0.7-0.2,1.4-0.6,1.9c-0.4,0.6-1,1-1.7,1.4C498.5,933.9,497.7,934.1,496.8,934.1z M510.4,934.1
					c-1.2,0-2.4-0.3-3.4-0.8c-1-0.6-1.8-1.4-2.4-2.4s-0.8-2.2-0.8-3.6c0-1.3,0.3-2.5,0.9-3.6c0.6-1,1.4-1.8,2.4-2.4
					c1-0.6,2.1-0.8,3.4-0.8c1.2,0,2.4,0.3,3.4,0.8c1,0.6,1.8,1.3,2.4,2.3c0.6,1,0.9,2.2,0.9,3.6s-0.3,2.6-0.9,3.6
					c-0.6,1-1.4,1.8-2.4,2.4C512.8,933.8,511.6,934.1,510.4,934.1z M510.4,932.2c0.8,0,1.5-0.2,2.2-0.6c0.7-0.4,1.2-0.9,1.7-1.7
					c0.4-0.7,0.6-1.6,0.6-2.7c0-1.1-0.2-2-0.6-2.7c-0.4-0.7-1-1.3-1.6-1.6c-0.7-0.4-1.4-0.5-2.2-0.5c-0.8,0-1.5,0.2-2.2,0.5
					c-0.7,0.4-1.2,0.9-1.6,1.6c-0.4,0.7-0.6,1.6-0.6,2.7c0,1.1,0.2,2,0.6,2.7s0.9,1.3,1.6,1.7C508.9,932,509.6,932.2,510.4,932.2z
					 M519.2,927.3c0-1.3,0.3-2.5,0.8-3.5s1.3-1.8,2.2-2.4c1-0.6,2-0.8,3.2-0.8s2.2,0.3,3,0.8s1.5,1.1,1.9,1.9v-2.4h2.2v13.2h-2.2
					v-2.4c-0.4,0.8-1.1,1.4-1.9,1.9c-0.8,0.5-1.8,0.8-3,0.8s-2.2-0.3-3.2-0.9c-0.9-0.6-1.7-1.4-2.2-2.4
					C519.4,929.8,519.2,928.6,519.2,927.3z M530.3,927.3c0-1-0.2-1.9-0.6-2.6c-0.4-0.7-0.9-1.3-1.6-1.7c-0.7-0.4-1.4-0.6-2.2-0.6
					s-1.6,0.2-2.2,0.6c-0.7,0.4-1.2,1-1.6,1.7c-0.4,0.7-0.6,1.6-0.6,2.6s0.2,1.9,0.6,2.6c0.4,0.7,0.9,1.3,1.6,1.7
					c0.7,0.4,1.4,0.6,2.2,0.6s1.6-0.2,2.2-0.6c0.7-0.4,1.2-1,1.6-1.7C530.1,929.1,530.3,928.3,530.3,927.3z M540.9,934.1
					c-1,0-1.9-0.2-2.7-0.5s-1.4-0.8-1.9-1.4c-0.5-0.6-0.7-1.3-0.8-2.1h2.3c0.1,0.7,0.4,1.2,0.9,1.6c0.6,0.4,1.3,0.6,2.2,0.6
					c0.8,0,1.5-0.2,2-0.6c0.5-0.4,0.7-0.8,0.7-1.4c0-0.6-0.3-1-0.8-1.3s-1.3-0.6-2.4-0.8c-1-0.3-1.8-0.5-2.4-0.8
					c-0.6-0.3-1.1-0.7-1.6-1.2c-0.4-0.5-0.6-1.2-0.6-2.1c0-0.7,0.2-1.3,0.6-1.8c0.4-0.6,1-1,1.7-1.3s1.6-0.5,2.5-0.5
					c1.5,0,2.6,0.4,3.5,1.1c0.9,0.7,1.4,1.7,1.4,3h-2.2c0-0.7-0.3-1.2-0.8-1.7c-0.5-0.4-1.2-0.6-2-0.6s-1.4,0.2-1.9,0.5
					s-0.7,0.8-0.7,1.3c0,0.4,0.1,0.8,0.4,1.1c0.3,0.3,0.6,0.5,1.1,0.7c0.4,0.2,1,0.3,1.8,0.5c0.9,0.3,1.7,0.5,2.3,0.8
					c0.6,0.2,1.1,0.6,1.5,1.1s0.7,1.1,0.7,1.9c0,0.7-0.2,1.4-0.6,1.9c-0.4,0.6-1,1-1.7,1.4C542.6,933.9,541.8,934.1,540.9,934.1z"/>
				<path class="st7" d="M1146,1033.9h304c4.4,0,8,3.6,8,8v34c0,4.4-3.6,8-8,8h-304c-4.4,0-8-3.6-8-8v-34
					C1138,1037.5,1141.6,1033.9,1146,1033.9z"/>
				<path class="st25" d="M1239.5,1051.4h3.3c0.5,0,0.9,0.2,1.2,0.5c0.3,0.3,0.5,0.7,0.5,1.2v11.7c0,0.5-0.2,0.9-0.5,1.2
					c-0.3,0.3-0.7,0.5-1.2,0.5h-3.3"/>
				<path class="st25" d="M1235.3,1063.1l4.2-4.2l-4.2-4.2"/>
				<path class="st25" d="M1239.5,1058.9h-10"/>
				<path class="st26" d="M1260,1055.2v3.3h3.8v1.5h-3.8v3.4h4.3v1.5h-6.1v-11.1h6.1v1.5h-4.3V1055.2z M1271,1055.9
					c0.7,0,1.3,0.1,1.8,0.4c0.6,0.3,1,0.7,1.3,1.3c0.3,0.6,0.5,1.3,0.5,2.1v5.2h-1.8v-4.9c0-0.8-0.2-1.4-0.6-1.8s-0.9-0.6-1.6-0.6
					s-1.2,0.2-1.6,0.6s-0.6,1-0.6,1.8v4.9h-1.8v-8.8h1.8v1c0.3-0.4,0.7-0.6,1.1-0.8C1270,1056,1270.5,1055.9,1271,1055.9z
					 M1279.1,1057.6v4.9c0,0.3,0.1,0.6,0.2,0.7c0.2,0.1,0.4,0.2,0.8,0.2h1.1v1.5h-1.4c-0.8,0-1.5-0.2-1.9-0.6s-0.7-1-0.7-1.9v-4.9
					h-1v-1.5h1v-2.2h1.8v2.2h2.1v1.5h-2V1057.6z M1284.8,1057.3c0.3-0.4,0.6-0.8,1.1-1c0.4-0.3,1-0.4,1.6-0.4v1.9h-0.5
					c-0.7,0-1.3,0.2-1.6,0.5c-0.4,0.4-0.5,1-0.5,1.9v4.6h-1.8v-8.8h1.8L1284.8,1057.3L1284.8,1057.3z M1288.5,1060.4
					c0-0.9,0.2-1.7,0.5-2.4c0.4-0.7,0.9-1.2,1.5-1.6s1.3-0.6,2.1-0.6c0.7,0,1.3,0.1,1.8,0.4s0.9,0.6,1.2,1v-1.3h1.8v8.8h-1.8v-1.3
					c-0.3,0.4-0.7,0.8-1.3,1c-0.5,0.3-1.1,0.4-1.8,0.4c-0.8,0-1.5-0.2-2.1-0.6s-1.1-0.9-1.5-1.6
					C1288.7,1062.1,1288.5,1061.3,1288.5,1060.4z M1295.7,1060.5c0-0.6-0.1-1.1-0.4-1.6c-0.3-0.4-0.6-0.8-1-1s-0.8-0.4-1.3-0.4
					s-0.9,0.1-1.3,0.4c-0.4,0.2-0.7,0.6-1,1s-0.4,1-0.4,1.6s0.1,1.1,0.4,1.6s0.6,0.8,1,1.1c0.4,0.2,0.9,0.4,1.3,0.4
					c0.5,0,0.9-0.1,1.3-0.4c0.4-0.2,0.7-0.6,1-1C1295.6,1061.6,1295.7,1061.1,1295.7,1060.5z M1301.7,1057.3c0.3-0.4,0.6-0.8,1.1-1
					c0.4-0.3,1-0.4,1.6-0.4v1.9h-0.5c-0.7,0-1.3,0.2-1.6,0.5s-0.6,1-0.6,1.9v4.6h-1.8v-8.8h1.8V1057.3z M1314.7,1055.9
					c0.7,0,1.3,0.1,1.9,0.4c0.5,0.3,1,0.7,1.3,1.3c0.3,0.6,0.5,1.3,0.5,2.1v5.2h-1.8v-4.9c0-0.8-0.2-1.4-0.6-1.8s-0.9-0.6-1.6-0.6
					s-1.2,0.2-1.6,0.6s-0.6,1-0.6,1.8v4.9h-1.8v-8.8h1.8v1c0.3-0.4,0.7-0.6,1.1-0.8C1313.6,1056,1314.1,1055.9,1314.7,1055.9z
					 M1320,1060.4c0-0.9,0.2-1.7,0.5-2.4c0.4-0.7,0.9-1.2,1.5-1.6s1.3-0.6,2.1-0.6c0.7,0,1.3,0.1,1.8,0.4s0.9,0.6,1.2,1v-1.3h1.8
					v8.8h-1.8v-1.3c-0.3,0.4-0.7,0.8-1.3,1c-0.5,0.3-1.1,0.4-1.8,0.4c-0.8,0-1.4-0.2-2.1-0.6c-0.6-0.4-1.1-0.9-1.5-1.6
					C1320.2,1062.1,1320,1061.3,1320,1060.4z M1327.2,1060.5c0-0.6-0.1-1.1-0.4-1.6c-0.3-0.4-0.6-0.8-1-1s-0.8-0.4-1.3-0.4
					s-0.9,0.1-1.3,0.4c-0.4,0.2-0.7,0.6-1,1s-0.4,1-0.4,1.6s0.1,1.1,0.4,1.6s0.6,0.8,1,1.1c0.4,0.2,0.8,0.4,1.3,0.4s0.9-0.1,1.3-0.4
					c0.4-0.2,0.7-0.6,1-1C1327.1,1061.6,1327.2,1061.1,1327.2,1060.5z M1338.8,1065c-0.7,0-1.3-0.1-1.9-0.4c-0.5-0.3-1-0.6-1.3-1
					s-0.5-0.9-0.5-1.4h1.9c0,0.4,0.2,0.7,0.5,0.9c0.3,0.3,0.7,0.4,1.2,0.4s0.9-0.1,1.2-0.3c0.3-0.2,0.4-0.5,0.4-0.8
					s-0.2-0.6-0.5-0.7c-0.3-0.2-0.8-0.3-1.5-0.5s-1.2-0.4-1.6-0.5c-0.4-0.2-0.8-0.4-1.1-0.8c-0.3-0.4-0.4-0.8-0.4-1.4
					c0-0.5,0.1-0.9,0.4-1.3s0.7-0.7,1.2-0.9c0.5-0.2,1.1-0.3,1.8-0.3c1,0,1.8,0.3,2.4,0.8s1,1.2,1,2.1h-1.8c0-0.4-0.2-0.7-0.5-0.9
					c-0.3-0.2-0.7-0.4-1.2-0.4s-0.8,0.1-1.1,0.3c-0.3,0.2-0.4,0.4-0.4,0.7c0,0.2,0.1,0.4,0.3,0.6c0.2,0.2,0.4,0.3,0.6,0.4
					c0.3,0.1,0.6,0.2,1.1,0.3c0.6,0.2,1.2,0.3,1.6,0.5s0.8,0.4,1.1,0.8c0.3,0.3,0.5,0.8,0.5,1.4c0,0.5-0.1,0.9-0.4,1.3
					s-0.7,0.7-1.2,0.9C1340.1,1064.9,1339.5,1065,1338.8,1065z M1343.6,1060.4c0-0.9,0.2-1.7,0.5-2.4c0.4-0.7,0.9-1.2,1.5-1.6
					s1.3-0.6,2.1-0.6c0.7,0,1.3,0.1,1.8,0.4s0.9,0.6,1.3,1v-1.3h1.8v8.8h-1.8v-1.3c-0.3,0.4-0.7,0.8-1.3,1c-0.5,0.3-1.1,0.4-1.8,0.4
					c-0.8,0-1.5-0.2-2.1-0.6s-1.1-0.9-1.5-1.6C1343.7,1062.1,1343.6,1061.3,1343.6,1060.4z M1350.8,1060.5c0-0.6-0.1-1.1-0.4-1.6
					s-0.6-0.8-1-1s-0.8-0.4-1.3-0.4s-0.9,0.1-1.3,0.4c-0.4,0.2-0.7,0.6-1,1s-0.4,1-0.4,1.6s0.1,1.1,0.4,1.6s0.6,0.8,1,1.1
					c0.4,0.2,0.8,0.4,1.3,0.4s0.9-0.1,1.3-0.4c0.4-0.2,0.7-0.6,1-1C1350.6,1061.6,1350.8,1061.1,1350.8,1060.5z M1356.8,1053v11.8
					h-1.8V1053H1356.8z M1358.6,1060.4c0-0.9,0.2-1.7,0.5-2.4c0.4-0.7,0.9-1.2,1.5-1.6s1.3-0.6,2.1-0.6c0.7,0,1.3,0.1,1.8,0.4
					s0.9,0.6,1.2,1v-1.3h1.8v8.8h-1.8v-1.3c-0.3,0.4-0.7,0.8-1.3,1c-0.5,0.3-1.1,0.4-1.8,0.4c-0.8,0-1.5-0.2-2.1-0.6
					s-1.1-0.9-1.5-1.6C1358.8,1062.1,1358.6,1061.3,1358.6,1060.4z M1365.8,1060.5c0-0.6-0.1-1.1-0.4-1.6c-0.3-0.4-0.6-0.8-1-1
					s-0.8-0.4-1.3-0.4s-0.9,0.1-1.3,0.4c-0.4,0.2-0.7,0.6-1,1s-0.4,1-0.4,1.6s0.1,1.1,0.4,1.6s0.6,0.8,1,1.1
					c0.4,0.2,0.8,0.4,1.3,0.4s0.9-0.1,1.3-0.4c0.4-0.2,0.7-0.6,1-1C1365.7,1061.6,1365.8,1061.1,1365.8,1060.5z"/>
				<path class="st27" d="M1158.7,985.7c1.2,0,2.3,0.2,3.2,0.7c0.9,0.4,1.6,1.1,2,1.9c0.5,0.8,0.7,1.8,0.7,3c0,1.1-0.2,2.1-0.7,3
					c-0.5,0.8-1.2,1.5-2,1.9c-0.9,0.4-1.9,0.7-3.2,0.7h-3.5v-11.2L1158.7,985.7L1158.7,985.7z M1158.7,995.7c1.4,0,2.5-0.4,3.3-1.1
					s1.1-1.8,1.1-3.2s-0.4-2.5-1.2-3.3c-0.8-0.8-1.8-1.2-3.3-1.2h-2v8.8H1158.7z M1167.3,986.7c-0.3,0-0.5-0.1-0.7-0.3
					s-0.3-0.4-0.3-0.7s0.1-0.5,0.3-0.7c0.2-0.2,0.4-0.3,0.7-0.3c0.3,0,0.5,0.1,0.7,0.3s0.3,0.4,0.3,0.7s-0.1,0.5-0.3,0.7
					C1167.8,986.6,1167.6,986.7,1167.3,986.7z M1168,988.1v8.8h-1.5v-8.8H1168z M1174.1,988c0.8,0,1.4,0.2,2,0.5s1,0.8,1.3,1.3v-1.6
					h1.5v9c0,0.8-0.2,1.5-0.5,2.1s-0.8,1.1-1.5,1.5c-0.6,0.3-1.4,0.5-2.2,0.5c-1.2,0-2.1-0.3-2.9-0.8s-1.2-1.3-1.4-2.2h1.4
					c0.2,0.5,0.5,1,1,1.3s1.1,0.5,1.8,0.5c0.8,0,1.4-0.3,1.9-0.8s0.8-1.2,0.8-2.1v-1.8c-0.3,0.5-0.7,0.9-1.3,1.3
					c-0.6,0.3-1.2,0.5-2,0.5s-1.5-0.2-2.1-0.6c-0.6-0.4-1.1-0.9-1.5-1.6c-0.4-0.7-0.5-1.5-0.5-2.4s0.2-1.7,0.5-2.3
					c0.4-0.7,0.9-1.2,1.5-1.6C1172.6,988.2,1173.3,988,1174.1,988z M1177.4,992.5c0-0.7-0.1-1.2-0.4-1.7s-0.6-0.9-1.1-1.1
					c-0.4-0.3-0.9-0.4-1.5-0.4s-1,0.1-1.5,0.4c-0.5,0.3-0.8,0.6-1.1,1.1c-0.3,0.5-0.4,1.1-0.4,1.7c0,0.7,0.1,1.3,0.4,1.8
					s0.6,0.9,1.1,1.1c0.4,0.3,0.9,0.4,1.5,0.4c0.5,0,1-0.1,1.5-0.4c0.5-0.3,0.8-0.7,1.1-1.1C1177.2,993.7,1177.4,993.1,1177.4,992.5
					z M1182.1,986.7c-0.3,0-0.5-0.1-0.7-0.3s-0.3-0.4-0.3-0.7s0.1-0.5,0.3-0.7c0.2-0.2,0.4-0.3,0.7-0.3c0.3,0,0.5,0.1,0.7,0.3
					s0.3,0.4,0.3,0.7s-0.1,0.5-0.3,0.7C1182.5,986.6,1182.3,986.7,1182.1,986.7z M1182.8,988.1v8.8h-1.5v-8.8H1182.8z M1187,989.3
					v5.2c0,0.4,0.1,0.7,0.3,0.9c0.2,0.2,0.5,0.3,0.9,0.3h1.1v1.2h-1.3c-0.8,0-1.4-0.2-1.8-0.6c-0.4-0.4-0.6-1-0.6-1.8v-5.2h-1.1
					v-1.2h1.1v-2.2h1.5v2.2h2.3v1.2L1187,989.3L1187,989.3z M1199.1,992.2c0,0.3,0,0.6-0.1,0.9h-7c0.1,0.9,0.3,1.5,0.9,2
					s1.2,0.7,2,0.7c0.6,0,1.2-0.1,1.6-0.4c0.4-0.3,0.7-0.7,0.9-1.2h1.6c-0.2,0.8-0.7,1.5-1.4,2.1c-0.7,0.5-1.6,0.8-2.6,0.8
					c-0.8,0-1.6-0.2-2.2-0.6c-0.7-0.4-1.2-0.9-1.5-1.6c-0.4-0.7-0.6-1.5-0.6-2.4s0.2-1.7,0.5-2.4c0.4-0.7,0.9-1.2,1.5-1.6
					c0.7-0.4,1.4-0.6,2.3-0.6c0.8,0,1.6,0.2,2.2,0.5c0.6,0.4,1.1,0.9,1.5,1.5C1198.9,990.7,1199.1,991.4,1199.1,992.2z
					 M1197.6,991.9c0-0.6-0.1-1-0.4-1.4s-0.6-0.7-1-0.9s-0.9-0.3-1.4-0.3c-0.7,0-1.4,0.2-1.9,0.7s-0.8,1.1-0.9,2L1197.6,991.9
					L1197.6,991.9z M1209.1,997c-0.8,0-1.6-0.2-2.2-0.6c-0.7-0.4-1.2-0.9-1.6-1.6c-0.4-0.7-0.6-1.5-0.6-2.4s0.2-1.7,0.6-2.4
					s0.9-1.2,1.6-1.6c0.7-0.4,1.4-0.6,2.3-0.6c0.8,0,1.6,0.2,2.3,0.6c0.7,0.4,1.2,0.9,1.6,1.6c0.4,0.7,0.6,1.5,0.6,2.4
					s-0.2,1.7-0.6,2.4s-0.9,1.2-1.6,1.6C1210.7,996.8,1209.9,997,1209.1,997z M1209.1,995.7c0.5,0,1-0.1,1.5-0.4
					c0.5-0.3,0.8-0.6,1.1-1.1c0.3-0.5,0.4-1.1,0.4-1.8s-0.1-1.3-0.4-1.8s-0.6-0.9-1.1-1.1c-0.4-0.3-0.9-0.4-1.5-0.4
					c-0.5,0-1,0.1-1.5,0.4c-0.4,0.2-0.8,0.6-1.1,1.1c-0.3,0.5-0.4,1.1-0.4,1.8s0.1,1.3,0.4,1.8s0.6,0.9,1.1,1.1
					C1208.1,995.6,1208.6,995.7,1209.1,995.7z M1219.2,992.5c0-0.9,0.2-1.7,0.6-2.4s0.9-1.2,1.5-1.6c0.7-0.4,1.4-0.6,2.2-0.6
					c1.1,0,2,0.3,2.7,0.8s1.2,1.3,1.4,2.2h-1.6c-0.1-0.5-0.4-1-0.9-1.3c-0.4-0.3-1-0.5-1.6-0.5c-0.8,0-1.5,0.3-2,0.9
					c-0.5,0.6-0.8,1.4-0.8,2.4c0,1.1,0.3,1.9,0.8,2.5s1.2,0.9,2,0.9c0.6,0,1.2-0.2,1.6-0.5s0.7-0.7,0.9-1.3h1.6
					c-0.2,0.9-0.7,1.6-1.4,2.2c-0.7,0.5-1.6,0.8-2.6,0.8c-0.8,0-1.6-0.2-2.2-0.6c-0.6-0.4-1.1-0.9-1.5-1.6
					C1219.4,994.2,1219.2,993.4,1219.2,992.5z M1233.3,997c-0.8,0-1.6-0.2-2.2-0.6c-0.7-0.4-1.2-0.9-1.6-1.6
					c-0.4-0.7-0.6-1.5-0.6-2.4s0.2-1.7,0.6-2.4s0.9-1.2,1.6-1.6c0.7-0.4,1.4-0.6,2.3-0.6c0.8,0,1.6,0.2,2.3,0.6
					c0.7,0.4,1.2,0.9,1.6,1.6c0.4,0.7,0.6,1.5,0.6,2.4s-0.2,1.7-0.6,2.4s-0.9,1.2-1.6,1.6C1234.9,996.8,1234.1,997,1233.3,997z
					 M1233.3,995.7c0.5,0,1-0.1,1.5-0.4c0.5-0.3,0.8-0.6,1.1-1.1s0.4-1.1,0.4-1.8s-0.1-1.3-0.4-1.8s-0.6-0.9-1.1-1.1
					c-0.4-0.3-0.9-0.4-1.5-0.4c-0.5,0-1,0.1-1.5,0.4c-0.4,0.2-0.8,0.6-1.1,1.1c-0.3,0.5-0.4,1.1-0.4,1.8s0.1,1.3,0.4,1.8
					s0.6,0.9,1.1,1.1C1232.3,995.6,1232.8,995.7,1233.3,995.7z M1234.9,985.5l-3.4,1.8v-1.1l3.4-2V985.5z M1239.2,992.5
					c0-0.9,0.2-1.7,0.5-2.3c0.4-0.7,0.9-1.2,1.5-1.6c0.6-0.4,1.4-0.6,2.1-0.6s1.3,0.2,1.9,0.5s1,0.7,1.3,1.2V985h1.5v11.8h-1.5v-1.7
					c-0.3,0.5-0.7,1-1.3,1.3c-0.6,0.3-1.2,0.5-2,0.5s-1.5-0.2-2.1-0.6c-0.6-0.4-1.1-0.9-1.5-1.6
					C1239.3,994.1,1239.2,993.4,1239.2,992.5z M1246.6,992.5c0-0.7-0.1-1.2-0.4-1.7s-0.6-0.9-1.1-1.1c-0.4-0.3-0.9-0.4-1.5-0.4
					c-0.5,0-1,0.1-1.5,0.4c-0.4,0.3-0.8,0.6-1.1,1.1c-0.3,0.5-0.4,1.1-0.4,1.7c0,0.7,0.1,1.3,0.4,1.8s0.6,0.9,1.1,1.1
					c0.4,0.3,0.9,0.4,1.5,0.4s1-0.1,1.5-0.4c0.5-0.3,0.8-0.7,1.1-1.1C1246.4,993.7,1246.6,993.1,1246.6,992.5z M1251.3,986.7
					c-0.3,0-0.5-0.1-0.7-0.3s-0.3-0.4-0.3-0.7s0.1-0.5,0.3-0.7c0.2-0.2,0.4-0.3,0.7-0.3c0.3,0,0.5,0.1,0.7,0.3s0.3,0.4,0.3,0.7
					s-0.1,0.5-0.3,0.7C1251.8,986.6,1251.5,986.7,1251.3,986.7z M1252,988.1v8.8h-1.5v-8.8H1252z M1258.1,988c0.8,0,1.4,0.2,2,0.5
					s1,0.8,1.3,1.3v-1.6h1.5v9c0,0.8-0.2,1.5-0.5,2.1s-0.8,1.1-1.5,1.5c-0.6,0.3-1.4,0.5-2.2,0.5c-1.2,0-2.1-0.3-2.9-0.8
					s-1.2-1.3-1.4-2.2h1.4c0.2,0.5,0.5,1,1,1.3s1.1,0.5,1.8,0.5c0.8,0,1.5-0.3,2-0.8s0.8-1.2,0.8-2.1v-1.8c-0.3,0.5-0.7,0.9-1.3,1.3
					c-0.6,0.3-1.2,0.5-2,0.5s-1.5-0.2-2.1-0.6c-0.6-0.4-1.1-0.9-1.5-1.6c-0.4-0.7-0.5-1.5-0.5-2.4s0.2-1.7,0.5-2.3
					c0.4-0.7,0.9-1.2,1.5-1.6C1256.6,988.2,1257.3,988,1258.1,988z M1261.3,992.5c0-0.7-0.1-1.2-0.4-1.7s-0.6-0.9-1.1-1.1
					c-0.4-0.3-0.9-0.4-1.5-0.4c-0.5,0-1,0.1-1.5,0.4c-0.4,0.3-0.8,0.6-1.1,1.1c-0.3,0.5-0.4,1.1-0.4,1.7c0,0.7,0.1,1.3,0.4,1.8
					s0.6,0.9,1.1,1.1c0.4,0.3,0.9,0.4,1.5,0.4s1-0.1,1.5-0.4c0.5-0.3,0.8-0.7,1.1-1.1C1261.2,993.7,1261.3,993.1,1261.3,992.5z
					 M1269.1,997c-0.8,0-1.6-0.2-2.2-0.6c-0.7-0.4-1.2-0.9-1.6-1.6c-0.4-0.7-0.6-1.5-0.6-2.4s0.2-1.7,0.6-2.4s0.9-1.2,1.6-1.6
					c0.7-0.4,1.4-0.6,2.3-0.6c0.8,0,1.6,0.2,2.3,0.6c0.7,0.4,1.2,0.9,1.6,1.6c0.4,0.7,0.6,1.5,0.6,2.4s-0.2,1.7-0.6,2.4
					s-0.9,1.2-1.6,1.6C1270.7,996.8,1269.9,997,1269.1,997z M1269.1,995.7c0.5,0,1-0.1,1.5-0.4c0.5-0.3,0.8-0.6,1.1-1.1
					c0.3-0.5,0.4-1.1,0.4-1.8s-0.1-1.3-0.4-1.8s-0.6-0.9-1.1-1.1c-0.4-0.3-0.9-0.4-1.4-0.4s-1,0.1-1.5,0.4c-0.4,0.2-0.8,0.6-1.1,1.1
					c-0.3,0.5-0.4,1.1-0.4,1.8s0.1,1.3,0.4,1.8s0.6,0.9,1.1,1.1C1268.1,995.6,1268.6,995.7,1269.1,995.7z M1279.2,992.5
					c0-0.9,0.2-1.7,0.5-2.3c0.4-0.7,0.9-1.2,1.5-1.6c0.6-0.4,1.4-0.6,2.2-0.6c0.7,0,1.3,0.2,1.9,0.5s1,0.7,1.3,1.2V985h1.5v11.8
					h-1.5v-1.7c-0.3,0.5-0.7,1-1.3,1.3c-0.6,0.3-1.2,0.5-2,0.5s-1.5-0.2-2.1-0.6c-0.6-0.4-1.1-0.9-1.5-1.6
					C1279.4,994.1,1279.2,993.4,1279.2,992.5z M1286.6,992.5c0-0.7-0.1-1.2-0.4-1.7s-0.6-0.9-1.1-1.1c-0.5-0.3-1-0.4-1.5-0.4
					c-0.6,0-1,0.1-1.5,0.4c-0.5,0.3-0.8,0.6-1.1,1.1c-0.3,0.5-0.4,1.1-0.4,1.7c0,0.7,0.1,1.3,0.4,1.8s0.6,0.9,1.1,1.1
					c0.4,0.3,0.9,0.4,1.5,0.4c0.5,0,1-0.1,1.5-0.4c0.4-0.3,0.8-0.7,1.1-1.1C1286.5,993.7,1286.6,993.1,1286.6,992.5z M1290,992.5
					c0-0.9,0.2-1.7,0.5-2.3c0.4-0.7,0.9-1.2,1.5-1.6c0.6-0.4,1.3-0.6,2.1-0.6c0.8,0,1.4,0.2,2,0.5s1,0.8,1.3,1.3v-1.6h1.5v8.8h-1.5
					v-1.6c-0.3,0.5-0.7,0.9-1.3,1.3c-0.6,0.3-1.2,0.5-2,0.5s-1.5-0.2-2.1-0.6c-0.6-0.4-1.1-0.9-1.5-1.6
					C1290.2,994.1,1290,993.4,1290,992.5z M1297.5,992.5c0-0.7-0.1-1.2-0.4-1.7s-0.6-0.9-1.1-1.1c-0.4-0.3-0.9-0.4-1.5-0.4
					s-1,0.1-1.5,0.4c-0.4,0.3-0.8,0.6-1.1,1.1c-0.3,0.5-0.4,1.1-0.4,1.7c0,0.7,0.1,1.3,0.4,1.8s0.6,0.9,1.1,1.1
					c0.4,0.3,0.9,0.4,1.5,0.4s1-0.1,1.5-0.4c0.5-0.3,0.8-0.7,1.1-1.1C1297.3,993.7,1297.5,993.1,1297.5,992.5z M1308.8,997
					c-0.7,0-1.3-0.1-1.8-0.3s-0.9-0.6-1.3-1c-0.3-0.4-0.5-0.9-0.5-1.4h1.5c0,0.4,0.2,0.8,0.6,1.1s0.8,0.4,1.4,0.4s1-0.1,1.3-0.4
					c0.3-0.2,0.5-0.6,0.5-0.9c0-0.4-0.2-0.7-0.5-0.8c-0.3-0.2-0.9-0.4-1.6-0.6c-0.6-0.2-1.2-0.3-1.6-0.5s-0.8-0.4-1.1-0.8
					c-0.3-0.3-0.4-0.8-0.4-1.4c0-0.5,0.1-0.9,0.4-1.2c0.3-0.4,0.7-0.7,1.1-0.9c0.5-0.2,1-0.3,1.7-0.3c1,0,1.8,0.2,2.4,0.7
					s0.9,1.2,1,2h-1.5c0-0.5-0.2-0.8-0.6-1.1c-0.3-0.3-0.8-0.4-1.3-0.4s-0.9,0.1-1.3,0.3c-0.3,0.2-0.5,0.5-0.5,0.9
					c0,0.3,0.1,0.5,0.3,0.7c0.2,0.2,0.4,0.3,0.7,0.4c0.3,0.1,0.7,0.2,1.2,0.4c0.6,0.2,1.1,0.3,1.5,0.5s0.7,0.4,1,0.7
					s0.4,0.8,0.4,1.3s-0.1,0.9-0.4,1.3c-0.3,0.4-0.7,0.7-1.1,0.9C1309.9,996.9,1309.4,997,1308.8,997z M1313.5,992.5
					c0-0.9,0.2-1.7,0.5-2.3c0.4-0.7,0.9-1.2,1.5-1.6c0.6-0.4,1.3-0.6,2.1-0.6c0.8,0,1.4,0.2,2,0.5s1,0.8,1.3,1.3v-1.6h1.5v8.8h-1.5
					v-1.6c-0.3,0.5-0.7,0.9-1.3,1.3c-0.6,0.3-1.2,0.5-2,0.5s-1.5-0.2-2.1-0.6c-0.6-0.4-1.1-0.9-1.5-1.6
					C1313.7,994.1,1313.5,993.4,1313.5,992.5z M1320.9,992.5c0-0.7-0.1-1.2-0.4-1.7s-0.6-0.9-1.1-1.1c-0.5-0.3-1-0.4-1.5-0.4
					c-0.6,0-1,0.1-1.5,0.4c-0.5,0.3-0.8,0.6-1.1,1.1c-0.3,0.5-0.4,1.1-0.4,1.7c0,0.7,0.1,1.3,0.4,1.8s0.6,0.9,1.1,1.1
					c0.4,0.3,0.9,0.4,1.5,0.4c0.5,0,1-0.1,1.5-0.4c0.4-0.3,0.8-0.7,1.1-1.1C1320.8,993.7,1320.9,993.1,1320.9,992.5z M1326.3,985
					v11.8h-1.5V985H1326.3z M1328.2,992.5c0-0.9,0.2-1.7,0.5-2.3c0.4-0.7,0.9-1.2,1.5-1.6c0.6-0.4,1.3-0.6,2.1-0.6
					c0.8,0,1.4,0.2,2,0.5s1,0.8,1.3,1.3v-1.6h1.5v8.8h-1.5v-1.6c-0.3,0.5-0.7,0.9-1.3,1.3c-0.6,0.3-1.2,0.5-2,0.5s-1.5-0.2-2.1-0.6
					c-0.6-0.4-1.1-0.9-1.5-1.6C1328.4,994.1,1328.2,993.4,1328.2,992.5z M1335.6,992.5c0-0.7-0.1-1.2-0.4-1.7s-0.6-0.9-1.1-1.1
					c-0.5-0.3-1-0.4-1.5-0.4c-0.6,0-1,0.1-1.5,0.4c-0.5,0.3-0.8,0.6-1.1,1.1c-0.3,0.5-0.4,1.1-0.4,1.7c0,0.7,0.1,1.3,0.4,1.8
					s0.6,0.9,1.1,1.1c0.4,0.3,0.9,0.4,1.5,0.4c0.5,0,1-0.1,1.5-0.4c0.4-0.3,0.8-0.7,1.1-1.1C1335.5,993.7,1335.6,993.1,1335.6,992.5
					z"/>
				<path class="st28" d="M1146,966.4h304c4.1,0,7.5,3.4,7.5,7.5v34c0,4.1-3.4,7.5-7.5,7.5h-304c-4.1,0-7.5-3.4-7.5-7.5v-34
					C1138.5,969.7,1141.9,966.4,1146,966.4z"/>
				<path class="st27" d="M1224.4,928c-0.7,0-1.4-0.2-2-0.5s-1-0.8-1.4-1.4c-0.3-0.6-0.5-1.3-0.5-2.1s0.2-1.5,0.5-2.1
					s0.8-1.1,1.4-1.4c0.6-0.3,1.2-0.5,2-0.5s1.4,0.2,2,0.5s1.1,0.8,1.4,1.4c0.3,0.6,0.5,1.3,0.5,2.1s-0.2,1.5-0.5,2.1
					s-0.8,1.1-1.4,1.4C1225.8,927.8,1225.2,928,1224.4,928z M1224.4,926.9c0.5,0,0.9-0.1,1.3-0.3s0.7-0.5,1-1
					c0.3-0.4,0.4-0.9,0.4-1.6s-0.1-1.1-0.4-1.6c-0.2-0.4-0.6-0.7-0.9-0.9s-0.8-0.3-1.3-0.3s-0.9,0.1-1.3,0.3s-0.7,0.5-0.9,0.9
					c-0.2,0.4-0.3,1-0.3,1.6s0.1,1.2,0.3,1.6c0.2,0.4,0.5,0.8,0.9,1C1223.6,926.8,1224,926.9,1224.4,926.9z M1236.8,920.2v7.7h-1.3
					v-1.1c-0.2,0.4-0.6,0.7-1,0.9s-0.9,0.3-1.4,0.3c-0.6,0-1.1-0.1-1.6-0.4c-0.5-0.3-0.8-0.6-1.1-1.1c-0.3-0.5-0.4-1.1-0.4-1.8v-4.5
					h1.3v4.3c0,0.8,0.2,1.3,0.6,1.8c0.4,0.4,0.9,0.6,1.6,0.6s1.2-0.2,1.6-0.6c0.4-0.4,0.6-1,0.6-1.8v-4.2h1.1V920.2z M1249.7,923.8
					c0,0.2,0,0.5,0,0.8h-6.1c0,0.8,0.3,1.3,0.8,1.8c0.5,0.4,1.1,0.6,1.7,0.6c0.5,0,1-0.1,1.4-0.4c0.4-0.3,0.6-0.6,0.8-1h1.4
					c-0.2,0.7-0.6,1.3-1.2,1.8s-1.4,0.7-2.3,0.7c-0.7,0-1.4-0.2-2-0.5s-1-0.8-1.3-1.4c-0.3-0.6-0.5-1.3-0.5-2.1s0.2-1.5,0.5-2.1
					s0.8-1.1,1.3-1.4c0.6-0.3,1.2-0.5,2-0.5c0.7,0,1.4,0.2,1.9,0.5c0.6,0.3,1,0.8,1.3,1.3C1249.6,922.4,1249.7,923.1,1249.7,923.8z
					 M1248.4,923.5c0-0.5-0.1-0.9-0.3-1.2c-0.2-0.4-0.5-0.6-0.9-0.8s-0.8-0.3-1.2-0.3c-0.6,0-1.2,0.2-1.7,0.6
					c-0.4,0.4-0.7,1-0.8,1.7H1248.4z M1255.1,920.1c0.9,0,1.7,0.3,2.3,0.9c0.6,0.6,0.9,1.4,0.9,2.4v4.5h-1.3v-4.3
					c0-0.8-0.2-1.3-0.6-1.8c-0.4-0.4-0.9-0.6-1.6-0.6s-1.2,0.2-1.6,0.6c-0.4,0.4-0.6,1-0.6,1.8v4.2h-1.3v-7.7h1.3v1.1
					c0.3-0.4,0.6-0.7,1-0.9C1254.1,920.2,1254.6,920.1,1255.1,920.1z M1261.9,921.3v4.5c0,0.4,0.1,0.6,0.2,0.8
					c0.2,0.2,0.4,0.2,0.8,0.2h0.9v1.1h-1.1c-0.7,0-1.3-0.2-1.6-0.5c-0.4-0.3-0.5-0.9-0.5-1.6v-4.5h-1v-1.1h1v-1.9h1.3v1.9h2v1.1
					H1261.9z M1266.7,921.5c0.2-0.4,0.5-0.8,1-1c0.4-0.2,0.9-0.4,1.5-0.4v1.3h-0.3c-1.4,0-2.1,0.8-2.1,2.3v4.2h-1.3v-7.7h1.3
					L1266.7,921.5L1266.7,921.5z M1277.7,923.8c0,0.2,0,0.5,0,0.8h-6.1c0,0.8,0.3,1.3,0.8,1.8c0.5,0.4,1,0.6,1.7,0.6
					c0.6,0,1-0.1,1.4-0.4c0.4-0.3,0.6-0.6,0.8-1h1.4c-0.2,0.7-0.6,1.3-1.2,1.8s-1.4,0.7-2.3,0.7c-0.7,0-1.4-0.2-2-0.5
					s-1-0.8-1.4-1.4c-0.3-0.6-0.5-1.3-0.5-2.1s0.2-1.5,0.5-2.1s0.8-1.1,1.3-1.4c0.6-0.3,1.2-0.5,2-0.5c0.7,0,1.4,0.2,1.9,0.5
					c0.6,0.3,1,0.8,1.3,1.3C1277.5,922.4,1277.7,923.1,1277.7,923.8z M1276.4,923.5c0-0.5-0.1-0.9-0.3-1.2c-0.2-0.4-0.5-0.6-0.9-0.8
					s-0.8-0.3-1.2-0.3c-0.6,0-1.2,0.2-1.6,0.6c-0.5,0.4-0.7,1-0.8,1.7H1276.4z M1290.1,923.8c0,0.2,0,0.5,0,0.8h-6.1
					c0,0.8,0.3,1.3,0.8,1.8c0.5,0.4,1.1,0.6,1.7,0.6c0.5,0,1-0.1,1.4-0.4c0.4-0.3,0.6-0.6,0.8-1h1.4c-0.2,0.7-0.6,1.3-1.2,1.8
					s-1.4,0.7-2.3,0.7c-0.7,0-1.4-0.2-2-0.5s-1-0.8-1.3-1.4c-0.3-0.6-0.5-1.3-0.5-2.1s0.2-1.5,0.5-2.1s0.8-1.1,1.3-1.4
					c0.6-0.3,1.2-0.5,2-0.5c0.7,0,1.4,0.2,1.9,0.5c0.6,0.3,1,0.8,1.3,1.3C1289.9,922.4,1290.1,923.1,1290.1,923.8z M1288.8,923.5
					c0-0.5-0.1-0.9-0.3-1.2c-0.2-0.4-0.5-0.6-0.9-0.8s-0.8-0.3-1.2-0.3c-0.7,0-1.2,0.2-1.7,0.6c-0.4,0.4-0.7,1-0.8,1.7H1288.8z
					 M1301,920.1c0.6,0,1.1,0.1,1.6,0.4c0.5,0.2,0.8,0.6,1.1,1.1c0.3,0.5,0.4,1.1,0.4,1.8v4.5h-1.3v-4.3c0-0.8-0.2-1.3-0.6-1.8
					c-0.4-0.4-0.9-0.6-1.5-0.6c-0.7,0-1.2,0.2-1.6,0.6c-0.4,0.4-0.6,1-0.6,1.8v4.2h-1.3v-4.3c0-0.8-0.2-1.3-0.6-1.8
					c-0.4-0.4-0.9-0.6-1.5-0.6c-0.7,0-1.2,0.2-1.6,0.6c-0.4,0.4-0.6,1-0.6,1.8v4.2h-1.3V920h1.3v1.1c0.3-0.4,0.6-0.7,1-0.9
					s0.9-0.3,1.4-0.3c0.7,0,1.2,0.1,1.7,0.4c0.5,0.3,0.9,0.7,1.1,1.3c0.2-0.6,0.6-1,1.1-1.3C1299.8,920.2,1300.4,920.1,1301,920.1z
					 M1316.7,920.2v7.7h-1.3v-1.1c-0.2,0.4-0.6,0.7-1,0.9s-0.9,0.3-1.4,0.3c-0.6,0-1.1-0.1-1.6-0.4c-0.5-0.3-0.8-0.6-1.1-1.1
					c-0.3-0.5-0.4-1.1-0.4-1.8v-4.5h1.3v4.3c0,0.8,0.2,1.3,0.6,1.8c0.4,0.4,0.9,0.6,1.6,0.6s1.2-0.2,1.6-0.6c0.4-0.4,0.6-1,0.6-1.8
					v-4.2h1.1V920.2z M1328.1,920.1c0.6,0,1.1,0.1,1.6,0.4c0.5,0.2,0.8,0.6,1.1,1.1c0.3,0.5,0.4,1.1,0.4,1.8v4.5h-1.3v-4.3
					c0-0.8-0.2-1.3-0.6-1.8c-0.4-0.4-0.9-0.6-1.5-0.6c-0.7,0-1.2,0.2-1.6,0.6c-0.4,0.4-0.6,1-0.6,1.8v4.2h-1.3v-4.3
					c0-0.8-0.2-1.3-0.6-1.8c-0.4-0.4-0.9-0.6-1.5-0.6c-0.7,0-1.2,0.2-1.6,0.6c-0.4,0.4-0.6,1-0.6,1.8v4.2h-1.3V920h1.3v1.1
					c0.3-0.4,0.6-0.7,1-0.9s0.9-0.3,1.4-0.3c0.7,0,1.2,0.1,1.7,0.4c0.5,0.3,0.9,0.7,1.1,1.3c0.2-0.6,0.6-1,1.1-1.3
					C1327,920.2,1327.5,920.1,1328.1,920.1z M1332.8,924c0-0.8,0.2-1.5,0.5-2.1s0.8-1.1,1.3-1.4c0.6-0.3,1.2-0.5,1.9-0.5
					c0.7,0,1.3,0.2,1.8,0.4c0.5,0.3,0.9,0.7,1.1,1.1v-1.4h1.3v7.7h-1.3v-1.4c-0.3,0.5-0.6,0.8-1.1,1.1s-1.1,0.4-1.7,0.4
					c-0.7,0-1.3-0.2-1.8-0.5s-1-0.8-1.3-1.4C1333,925.5,1332.8,924.8,1332.8,924z M1339.3,924c0-0.6-0.1-1.1-0.3-1.5
					c-0.2-0.4-0.5-0.8-0.9-1s-0.8-0.3-1.3-0.3s-0.9,0.1-1.3,0.3s-0.7,0.5-0.9,1c-0.2,0.4-0.3,0.9-0.3,1.5s0.1,1.1,0.3,1.5
					c0.2,0.4,0.5,0.8,0.9,1s0.8,0.3,1.3,0.3s0.9-0.1,1.3-0.3s0.7-0.6,0.9-1C1339.2,925.1,1339.3,924.6,1339.3,924z M1349.2,928
					c-0.6,0-1.1-0.1-1.6-0.3s-0.8-0.5-1.1-0.8s-0.4-0.8-0.5-1.2h1.3c0,0.4,0.2,0.7,0.5,0.9c0.3,0.3,0.8,0.4,1.3,0.4s0.9-0.1,1.1-0.3
					c0.3-0.2,0.4-0.5,0.4-0.8s-0.2-0.6-0.4-0.7c-0.3-0.2-0.8-0.3-1.4-0.5s-1-0.3-1.4-0.5s-0.7-0.4-0.9-0.7c-0.3-0.3-0.4-0.7-0.4-1.2
					c0-0.4,0.1-0.8,0.3-1.1c0.2-0.3,0.6-0.6,1-0.8s0.9-0.3,1.5-0.3c0.8,0,1.5,0.2,2.1,0.7c0.5,0.4,0.8,1,0.8,1.8h-1.3
					c0-0.4-0.2-0.7-0.5-1c-0.3-0.2-0.7-0.4-1.2-0.4s-0.8,0.1-1.1,0.3c-0.3,0.2-0.4,0.5-0.4,0.8s0.1,0.5,0.2,0.6
					c0.2,0.2,0.4,0.3,0.6,0.4c0.3,0.1,0.6,0.2,1,0.3c0.5,0.2,1,0.3,1.3,0.5c0.3,0.1,0.6,0.3,0.9,0.6s0.4,0.7,0.4,1.1
					c0,0.4-0.1,0.8-0.3,1.1c-0.2,0.3-0.6,0.6-1,0.8C1350.3,927.9,1349.8,928,1349.2,928z M1353.3,924c0-0.8,0.2-1.5,0.5-2.1
					s0.8-1.1,1.3-1.4c0.6-0.3,1.2-0.5,1.9-0.5c0.7,0,1.3,0.2,1.8,0.4c0.5,0.3,0.9,0.7,1.1,1.1v-1.4h1.3v7.7h-1.3v-1.4
					c-0.3,0.5-0.6,0.8-1.1,1.1s-1.1,0.4-1.7,0.4c-0.7,0-1.3-0.2-1.8-0.5c-0.6-0.3-1-0.8-1.3-1.4
					C1353.5,925.5,1353.3,924.8,1353.3,924z M1359.8,924c0-0.6-0.1-1.1-0.3-1.5c-0.2-0.4-0.6-0.8-0.9-1c-0.4-0.2-0.8-0.3-1.3-0.3
					s-0.9,0.1-1.3,0.3s-0.7,0.5-0.9,1c-0.2,0.4-0.3,0.9-0.3,1.5s0.1,1.1,0.3,1.5c0.2,0.4,0.6,0.8,0.9,1c0.4,0.2,0.8,0.3,1.3,0.3
					s0.9-0.1,1.3-0.3s0.7-0.6,0.9-1C1359.7,925.1,1359.8,924.6,1359.8,924z M1364.6,917.5v10.4h-1.3v-10.4H1364.6z M1366.3,924
					c0-0.8,0.2-1.5,0.5-2.1s0.8-1.1,1.3-1.4c0.6-0.3,1.2-0.5,1.9-0.5c0.7,0,1.3,0.2,1.8,0.4c0.5,0.3,0.9,0.7,1.1,1.1v-1.4h1.3v7.7
					h-1.3v-1.4c-0.3,0.5-0.6,0.8-1.1,1.1s-1.1,0.4-1.7,0.4c-0.7,0-1.3-0.2-1.8-0.5c-0.6-0.3-1-0.8-1.3-1.4
					C1366.4,925.5,1366.3,924.8,1366.3,924z M1372.7,924c0-0.6-0.1-1.1-0.3-1.5c-0.2-0.4-0.6-0.8-1-1s-0.8-0.3-1.3-0.3
					s-0.9,0.1-1.3,0.3s-0.7,0.5-0.9,1s-0.3,0.9-0.3,1.5s0.1,1.1,0.3,1.5c0.2,0.4,0.5,0.8,0.9,1s0.8,0.3,1.3,0.3s0.9-0.1,1.3-0.3
					s0.7-0.6,1-1C1372.6,925.1,1372.7,924.6,1372.7,924z"/>
				<line class="st28" x1="1139" y1="923.4" x2="1214" y2="923.4"/>
				<line class="st28" x1="1383" y1="923.4" x2="1458" y2="923.4"/>
				<path class="st29" d="M1182,848.9c1.6,0,3.1,0.6,4.3,1.5l3.6-3.5c-2.1-1.9-4.9-3-7.9-3c-4.6,0-8.6,2.6-10.6,6.4l4,3.2
					C1176.4,850.8,1179,848.9,1182,848.9z"/>
				<path class="st30" d="M1193.9,857.4c0.1-0.5,0.1-1,0.1-1.5c0-0.9-0.1-1.7-0.3-2.5H1182v5h6.5c-0.5,1.4-1.5,2.5-2.7,3.3l4.1,3.2
					C1192.1,863,1193.5,860.4,1193.9,857.4z"/>
				<path class="st31" d="M1175,855.9c0-0.8,0.2-1.6,0.4-2.4l-4-3.2c-0.9,1.7-1.4,3.6-1.4,5.6s0.5,3.9,1.4,5.5l4.1-3.2
					C1175.2,857.5,1175,856.7,1175,855.9z"/>
				<path class="st32" d="M1182,862.9c-3.1,0-5.6-1.9-6.6-4.7l-4.1,3.2c2,3.8,6,6.5,10.6,6.5c3,0,5.8-1.1,7.9-3l-4.1-3.2
					C1184.7,862.4,1183.4,862.9,1182,862.9z"/>
				<path class="st33" d="M1182,867.6c-3.5,0-6.7-1.5-8.9-3.8c2.2,2.5,5.4,4,8.9,4s6.7-1.5,8.9-4
					C1188.7,866.2,1185.5,867.6,1182,867.6z"/>
				<path class="st33" d="M1182,858.1v0.3h6.5l0.1-0.3H1182z"/>
				<path class="st34" d="M1194,856L1194,856L1194,856L1194,856z"/>
				<path class="st35" d="M1182,853.4v0.3h11.8c0-0.1,0-0.2-0.1-0.3H1182z"/>
				
					<linearGradient id="SVGID_24_" gradientUnits="userSpaceOnUse" x1="1170" y1="299.8" x2="1194" y2="299.8" gradientTransform="matrix(1 0 0 1 0 556)">
					<stop  offset="0" style="stop-color:#FFFFFF;stop-opacity:0.2"/>
					<stop  offset="1" style="stop-color:#FFFFFF;stop-opacity:0"/>
				</linearGradient>
				<path class="st36" d="M1193.7,853.4H1182v5h6.5c-1,2.6-3.5,4.5-6.5,4.5c-3.9,0-7-3.1-7-7s3.1-7,7-7c1.4,0,2.7,0.4,3.8,1.1
					c0.2,0.1,0.3,0.2,0.5,0.3l3.6-3.5l-0.1-0.1c-2.1-1.8-4.8-2.9-7.8-2.9c-6.6,0-12,5.4-12,12s5.4,12,12,12
					c6.1,0,11.2-4.6,11.9-10.5c0.1-0.5,0.1-1,0.1-1.5C1194,855,1193.9,854.2,1193.7,853.4z"/>
				<path class="st33" d="M1185.8,849.8c-1.1-0.7-2.4-1.1-3.8-1.1c-3.9,0-7,3.1-7,7v0.1c0.1-3.8,3.2-6.9,7-6.9
					c1.4,0,2.7,0.4,3.8,1.1c0.2,0.1,0.3,0.2,0.5,0.3l3.6-3.5l-3.6,3.2C1186.1,850,1186,849.9,1185.8,849.8z"/>
				<path class="st35" d="M1182,844.1c3,0,5.7,1.1,7.8,2.9l0.1-0.1l-0.1-0.1c-2.1-1.8-4.8-2.9-7.8-2.9c-6.6,0-12,5.4-12,12v0.1
					C1170.1,849.4,1175.4,844.1,1182,844.1z"/>
				<path class="st37" d="M1204.6,856.3c0-1.1,0.3-2.1,0.8-2.9c0.5-0.9,1.2-1.5,2.1-2s1.8-0.7,2.9-0.7c1.2,0,2.2,0.3,3.2,0.9
					c0.9,0.6,1.6,1.4,2,2.5h-2.2c-0.3-0.6-0.7-1-1.2-1.3s-1.1-0.4-1.8-0.4c-0.7,0-1.4,0.2-2,0.5s-1,0.8-1.4,1.4
					c-0.3,0.6-0.5,1.3-0.5,2.2c0,0.8,0.2,1.5,0.5,2.2c0.3,0.6,0.8,1.1,1.4,1.4c0.6,0.3,1.2,0.5,2,0.5c0.7,0,1.3-0.1,1.8-0.4
					c0.5-0.3,0.9-0.7,1.2-1.3h2.2c-0.4,1.1-1.1,1.9-2,2.5s-2,0.9-3.2,0.9c-1,0-2-0.2-2.9-0.7s-1.6-1.2-2.1-2
					C1204.8,858.4,1204.6,857.4,1204.6,856.3z M1219.4,854.3c0.3-0.4,0.6-0.8,1.1-1c0.4-0.3,1-0.4,1.6-0.4v1.9h-0.5
					c-0.7,0-1.3,0.2-1.6,0.5c-0.4,0.4-0.5,1-0.5,1.9v4.6h-1.8V853h1.8L1219.4,854.3L1219.4,854.3z M1224.6,851.9
					c-0.3,0-0.6-0.1-0.8-0.3c-0.2-0.2-0.3-0.5-0.3-0.8s0.1-0.6,0.3-0.8c0.2-0.2,0.5-0.3,0.8-0.3s0.6,0.1,0.8,0.3
					c0.2,0.2,0.3,0.5,0.3,0.8s-0.1,0.6-0.3,0.8C1225.2,851.8,1225,851.9,1224.6,851.9z M1225.5,853.1v8.8h-1.8v-8.8H1225.5z
					 M1236,857.3c0,0.3,0,0.6-0.1,0.9h-6.7c0.1,0.7,0.3,1.3,0.8,1.7s1,0.6,1.7,0.6c1,0,1.7-0.4,2.1-1.2h2c-0.3,0.8-0.8,1.5-1.5,2
					s-1.6,0.8-2.6,0.8c-0.8,0-1.6-0.2-2.3-0.6c-0.7-0.4-1.2-0.9-1.6-1.6c-0.4-0.7-0.6-1.5-0.6-2.4s0.2-1.7,0.5-2.4
					c0.4-0.7,0.9-1.2,1.6-1.6c0.7-0.4,1.4-0.6,2.3-0.6c0.8,0,1.6,0.2,2.2,0.5c0.7,0.4,1.2,0.9,1.5,1.5
					C1235.8,855.7,1236,856.4,1236,857.3z M1234.1,856.7c0-0.7-0.3-1.2-0.7-1.6c-0.5-0.4-1.1-0.6-1.7-0.6s-1.2,0.2-1.6,0.6
					c-0.5,0.4-0.7,0.9-0.8,1.6H1234.1z M1245.2,862c-0.7,0-1.3-0.1-1.9-0.4c-0.5-0.3-1-0.6-1.3-1s-0.5-0.9-0.5-1.5h1.9
					c0,0.4,0.2,0.7,0.5,0.9s0.7,0.4,1.2,0.4s0.9-0.1,1.2-0.3c0.3-0.2,0.4-0.5,0.4-0.8s-0.2-0.6-0.5-0.7c-0.3-0.2-0.8-0.3-1.5-0.5
					s-1.2-0.4-1.6-0.5c-0.4-0.2-0.8-0.4-1.1-0.8c-0.3-0.4-0.4-0.8-0.4-1.4c0-0.5,0.1-0.9,0.4-1.3c0.3-0.4,0.7-0.7,1.2-0.9
					s1.1-0.3,1.8-0.3c1,0,1.8,0.3,2.4,0.8s1,1.2,1,2.1h-1.8c0-0.4-0.2-0.7-0.5-0.9s-0.7-0.4-1.2-0.4s-0.8,0.1-1.1,0.3
					c-0.3,0.2-0.4,0.4-0.4,0.7c0,0.2,0.1,0.4,0.3,0.6c0.2,0.2,0.4,0.3,0.6,0.4c0.2,0.1,0.6,0.2,1.1,0.3c0.6,0.2,1.2,0.3,1.6,0.5
					s0.8,0.4,1.1,0.8c0.3,0.3,0.5,0.8,0.5,1.4c0,0.5-0.1,0.9-0.4,1.3c-0.3,0.4-0.7,0.7-1.2,0.9C1246.4,861.9,1245.8,862,1245.2,862z
					 M1258.5,853.1v8.8h-1.8v-1c-0.3,0.4-0.7,0.7-1.1,0.9c-0.5,0.2-1,0.3-1.5,0.3c-0.7,0-1.3-0.1-1.9-0.4c-0.5-0.3-1-0.7-1.3-1.3
					s-0.5-1.2-0.5-2v-5.2h1.8v4.9c0,0.8,0.2,1.4,0.6,1.8c0.4,0.4,0.9,0.6,1.6,0.6s1.2-0.2,1.6-0.6c0.4-0.4,0.6-1,0.6-1.8v-4.9
					L1258.5,853.1L1258.5,853.1z M1260.3,857.4c0-0.9,0.2-1.7,0.5-2.4c0.4-0.7,0.9-1.2,1.5-1.6c0.6-0.4,1.3-0.6,2.1-0.6
					c0.7,0,1.3,0.1,1.8,0.4c0.5,0.3,0.9,0.6,1.3,1v-1.3h1.8v8.8h-1.8v-1.3c-0.3,0.4-0.7,0.8-1.3,1c-0.5,0.3-1.1,0.4-1.8,0.4
					c-0.8,0-1.5-0.2-2.1-0.6c-0.6-0.4-1.1-0.9-1.5-1.6C1260.5,859.1,1260.3,858.3,1260.3,857.4z M1267.5,857.5
					c0-0.6-0.1-1.1-0.4-1.6s-0.6-0.8-1-1s-0.8-0.4-1.3-0.4s-0.9,0.1-1.3,0.4c-0.4,0.2-0.7,0.6-1,1s-0.4,1-0.4,1.6s0.1,1.1,0.4,1.6
					s0.6,0.8,1,1.1c0.4,0.2,0.8,0.4,1.3,0.4s0.9-0.1,1.3-0.4c0.4-0.2,0.7-0.6,1-1C1267.4,858.6,1267.5,858.1,1267.5,857.5z
					 M1279.1,862c-0.7,0-1.3-0.1-1.9-0.4c-0.5-0.3-1-0.6-1.3-1s-0.5-0.9-0.5-1.5h1.9c0,0.4,0.2,0.7,0.5,0.9s0.7,0.4,1.2,0.4
					s0.9-0.1,1.2-0.3c0.3-0.2,0.4-0.5,0.4-0.8s-0.2-0.6-0.5-0.7c-0.3-0.2-0.8-0.3-1.5-0.5s-1.2-0.4-1.6-0.5
					c-0.4-0.2-0.8-0.4-1.1-0.8c-0.3-0.4-0.5-0.8-0.5-1.4c0-0.5,0.1-0.9,0.4-1.3c0.3-0.4,0.7-0.7,1.2-0.9s1.1-0.3,1.8-0.3
					c1,0,1.8,0.3,2.4,0.8s0.9,1.2,1,2.1h-1.8c0-0.4-0.2-0.7-0.5-0.9s-0.7-0.4-1.2-0.4s-0.8,0.1-1.1,0.3c-0.3,0.2-0.4,0.4-0.4,0.7
					c0,0.2,0.1,0.4,0.3,0.6c0.2,0.2,0.4,0.3,0.6,0.4c0.2,0.1,0.6,0.2,1.1,0.3c0.6,0.2,1.2,0.3,1.6,0.5s0.8,0.4,1.1,0.8
					c0.3,0.3,0.4,0.8,0.5,1.4c0,0.5-0.1,0.9-0.4,1.3c-0.3,0.4-0.7,0.7-1.2,0.9C1280.4,861.9,1279.8,862,1279.1,862z M1283.8,857.4
					c0-0.9,0.2-1.7,0.6-2.4s0.9-1.2,1.5-1.6c0.6-0.4,1.3-0.6,2.1-0.6c0.7,0,1.3,0.1,1.8,0.4c0.5,0.3,0.9,0.6,1.3,1v-1.3h1.8v8.8
					h-1.8v-1.3c-0.3,0.4-0.7,0.8-1.3,1c-0.5,0.3-1.1,0.4-1.8,0.4c-0.8,0-1.4-0.2-2.1-0.6c-0.6-0.4-1.1-0.9-1.5-1.6
					C1284,859.1,1283.8,858.3,1283.8,857.4z M1291.1,857.5c0-0.6-0.1-1.1-0.4-1.6c-0.2-0.4-0.6-0.8-1-1s-0.8-0.4-1.3-0.4
					s-0.9,0.1-1.3,0.4c-0.4,0.2-0.7,0.6-1,1c-0.2,0.4-0.4,1-0.4,1.6s0.1,1.1,0.4,1.6s0.6,0.8,1,1.1c0.4,0.2,0.9,0.4,1.3,0.4
					c0.5,0,0.9-0.1,1.3-0.4c0.4-0.2,0.7-0.6,1-1C1290.9,858.6,1291.1,858.1,1291.1,857.5z M1297.1,850v11.8h-1.8V850H1297.1z
					 M1298.9,857.4c0-0.9,0.2-1.7,0.5-2.4c0.4-0.7,0.9-1.2,1.5-1.6c0.6-0.4,1.4-0.6,2.1-0.6s1.3,0.1,1.8,0.4c0.5,0.3,0.9,0.6,1.3,1
					v-1.3h1.8v8.8h-1.8v-1.3c-0.3,0.4-0.7,0.8-1.3,1c-0.5,0.3-1.1,0.4-1.8,0.4c-0.8,0-1.5-0.2-2.1-0.6c-0.6-0.4-1.1-0.9-1.5-1.6
					C1299.1,859.1,1298.9,858.3,1298.9,857.4z M1306.1,857.5c0-0.6-0.1-1.1-0.4-1.6s-0.6-0.8-1-1s-0.8-0.4-1.3-0.4s-0.9,0.1-1.3,0.4
					c-0.4,0.2-0.7,0.6-1,1c-0.2,0.4-0.4,1-0.4,1.6s0.1,1.1,0.4,1.6s0.6,0.8,1,1.1c0.4,0.2,0.8,0.4,1.3,0.4s0.9-0.1,1.3-0.4
					c0.4-0.2,0.7-0.6,1-1C1306,858.6,1306.1,858.1,1306.1,857.5z M1313.9,857.5c0-0.9,0.2-1.7,0.5-2.4c0.4-0.7,0.9-1.2,1.5-1.6
					c0.7-0.4,1.4-0.6,2.2-0.6c1.1,0,2,0.3,2.6,0.8c0.7,0.5,1.2,1.2,1.4,2.2h-2c-0.2-0.4-0.4-0.8-0.8-1s-0.8-0.4-1.3-0.4
					c-0.7,0-1.3,0.3-1.8,0.8c-0.4,0.5-0.7,1.3-0.7,2.2s0.2,1.7,0.7,2.2c0.4,0.5,1,0.8,1.8,0.8c1.1,0,1.8-0.5,2.1-1.4h2
					c-0.3,0.9-0.7,1.6-1.4,2.1c-0.7,0.5-1.6,0.8-2.6,0.8c-0.8,0-1.6-0.2-2.2-0.6c-0.7-0.4-1.2-0.9-1.5-1.6
					C1314.1,859.2,1313.9,858.4,1313.9,857.5z M1327.9,862c-0.8,0-1.6-0.2-2.3-0.6c-0.7-0.4-1.2-0.9-1.6-1.6
					c-0.4-0.7-0.6-1.5-0.6-2.4s0.2-1.7,0.6-2.4s0.9-1.2,1.6-1.6c0.7-0.4,1.5-0.6,2.3-0.6s1.6,0.2,2.3,0.6c0.7,0.4,1.2,0.9,1.6,1.6
					c0.4,0.7,0.6,1.5,0.6,2.4s-0.2,1.7-0.6,2.4s-1,1.2-1.7,1.6C1329.5,861.8,1328.8,862,1327.9,862z M1327.9,860.4
					c0.5,0,0.9-0.1,1.3-0.3s0.8-0.6,1-1s0.4-1,0.4-1.6s-0.1-1.2-0.4-1.6c-0.3-0.4-0.6-0.8-1-1s-0.8-0.3-1.3-0.3s-0.9,0.1-1.3,0.3
					s-0.7,0.6-1,1c-0.2,0.4-0.3,1-0.3,1.6c0,0.9,0.2,1.7,0.7,2.2C1326.6,860.2,1327.2,860.4,1327.9,860.4z M1345,852.9
					c0.7,0,1.3,0.1,1.9,0.4c0.6,0.3,1,0.7,1.3,1.3s0.5,1.2,0.5,2v5.2h-1.8V857c0-0.8-0.2-1.4-0.6-1.8c-0.4-0.4-0.9-0.6-1.6-0.6
					s-1.2,0.2-1.6,0.6c-0.4,0.4-0.6,1-0.6,1.8v4.9h-1.8V857c0-0.8-0.2-1.4-0.6-1.8c-0.4-0.4-0.9-0.6-1.6-0.6s-1.2,0.2-1.6,0.6
					c-0.4,0.4-0.6,1-0.6,1.8v4.9h-1.8v-8.8h1.8v1c0.3-0.4,0.7-0.6,1.1-0.8s0.9-0.3,1.5-0.3c0.7,0,1.3,0.1,1.9,0.4
					c0.6,0.3,1,0.7,1.3,1.3c0.3-0.5,0.7-1,1.3-1.3C1343.7,853.1,1344.3,852.9,1345,852.9z M1358.9,862c-0.8,0-1.6-0.2-2.3-0.6
					c-0.7-0.4-1.2-0.9-1.6-1.6c-0.4-0.7-0.6-1.5-0.6-2.4s0.2-1.7,0.6-2.4s0.9-1.2,1.6-1.6c0.7-0.4,1.4-0.6,2.3-0.6
					c0.8,0,1.6,0.2,2.3,0.6c0.7,0.4,1.2,0.9,1.6,1.6c0.4,0.7,0.6,1.5,0.6,2.4s-0.2,1.7-0.6,2.4s-1,1.2-1.7,1.6
					C1360.5,861.8,1359.8,862,1358.9,862z M1358.9,860.4c0.5,0,0.9-0.1,1.3-0.3s0.8-0.6,1-1c0.3-0.4,0.4-1,0.4-1.6s-0.1-1.2-0.4-1.6
					c-0.2-0.4-0.6-0.8-1-1s-0.8-0.3-1.3-0.3s-0.9,0.1-1.3,0.3s-0.7,0.6-0.9,1c-0.2,0.4-0.4,1-0.4,1.6c0,0.9,0.2,1.7,0.7,2.2
					C1357.6,860.2,1358.2,860.4,1358.9,860.4z M1377.5,854c-0.3-0.6-0.7-1-1.2-1.2c-0.5-0.3-1.1-0.4-1.8-0.4c-0.7,0-1.4,0.2-2,0.5
					s-1,0.8-1.4,1.4c-0.3,0.6-0.5,1.3-0.5,2.1s0.2,1.5,0.5,2.1s0.8,1.1,1.4,1.4c0.6,0.3,1.2,0.5,2,0.5c1,0,1.8-0.3,2.4-0.8
					c0.6-0.6,1-1.3,1.1-2.3h-4.2v-1.5h6.1v1.4c-0.1,0.9-0.4,1.7-0.9,2.4s-1.1,1.3-1.9,1.7s-1.7,0.6-2.6,0.6c-1,0-2-0.2-2.9-0.7
					s-1.6-1.2-2.1-2c-0.5-0.9-0.8-1.8-0.8-2.9s0.3-2.1,0.8-2.9c0.5-0.9,1.2-1.5,2.1-2s1.8-0.7,2.9-0.7c1.2,0,2.2,0.3,3.2,0.9
					c0.9,0.6,1.6,1.4,2,2.5L1377.5,854L1377.5,854z M1385.7,862c-0.8,0-1.6-0.2-2.3-0.6c-0.7-0.4-1.2-0.9-1.6-1.6
					c-0.4-0.7-0.6-1.5-0.6-2.4s0.2-1.7,0.6-2.4s0.9-1.2,1.6-1.6c0.7-0.4,1.5-0.6,2.3-0.6s1.6,0.2,2.3,0.6c0.7,0.4,1.2,0.9,1.6,1.6
					c0.4,0.7,0.6,1.5,0.6,2.4s-0.2,1.7-0.6,2.4s-1,1.2-1.7,1.6C1387.3,861.8,1386.5,862,1385.7,862z M1385.7,860.4
					c0.5,0,0.9-0.1,1.3-0.3s0.8-0.6,1-1s0.4-1,0.4-1.6s-0.1-1.2-0.4-1.6c-0.3-0.4-0.6-0.8-1-1s-0.8-0.3-1.3-0.3s-0.9,0.1-1.3,0.3
					s-0.7,0.6-1,1c-0.2,0.4-0.3,1-0.3,1.6c0,0.9,0.2,1.7,0.7,2.2C1384.3,860.2,1384.9,860.4,1385.7,860.4z M1395.8,862
					c-0.8,0-1.6-0.2-2.3-0.6c-0.7-0.4-1.2-0.9-1.6-1.6c-0.4-0.7-0.6-1.5-0.6-2.4s0.2-1.7,0.6-2.4s0.9-1.2,1.6-1.6
					c0.7-0.4,1.4-0.6,2.3-0.6c0.8,0,1.6,0.2,2.3,0.6c0.7,0.4,1.2,0.9,1.6,1.6c0.4,0.7,0.6,1.5,0.6,2.4s-0.2,1.7-0.6,2.4
					s-1,1.2-1.7,1.6C1397.5,861.8,1396.7,862,1395.8,862z M1395.8,860.4c0.5,0,0.9-0.1,1.3-0.3s0.8-0.6,1-1c0.3-0.4,0.4-1,0.4-1.6
					s-0.1-1.2-0.4-1.6c-0.3-0.4-0.6-0.8-1-1s-0.8-0.3-1.3-0.3s-0.9,0.1-1.3,0.3s-0.7,0.6-0.9,1c-0.2,0.4-0.3,1-0.3,1.6
					c0,0.9,0.2,1.7,0.7,2.2C1394.5,860.2,1395.1,860.4,1395.8,860.4z M1405.8,852.9c0.7,0,1.3,0.1,1.8,0.4c0.5,0.3,1,0.6,1.3,1V853
					h1.8v9c0,0.8-0.2,1.5-0.5,2.2c-0.3,0.6-0.8,1.1-1.5,1.5c-0.6,0.4-1.4,0.5-2.3,0.5c-1.2,0-2.2-0.3-3-0.8
					c-0.8-0.6-1.2-1.3-1.3-2.3h1.8c0.1,0.5,0.4,0.8,0.9,1.1s1,0.4,1.6,0.4c0.7,0,1.3-0.2,1.8-0.7c0.5-0.4,0.7-1.1,0.7-2v-1.5
					c-0.3,0.4-0.7,0.8-1.3,1.1c-0.5,0.3-1.1,0.4-1.8,0.4c-0.8,0-1.5-0.2-2.1-0.6c-0.6-0.4-1.1-0.9-1.5-1.6c-0.4-0.7-0.6-1.5-0.6-2.4
					s0.2-1.7,0.6-2.4s0.9-1.2,1.5-1.6C1404.3,853.1,1405,852.9,1405.8,852.9z M1408.8,857.5c0-0.6-0.1-1.1-0.4-1.6s-0.6-0.8-1-1
					s-0.8-0.4-1.3-0.4s-0.9,0.1-1.3,0.4c-0.4,0.2-0.7,0.6-1,1c-0.2,0.4-0.4,1-0.4,1.6s0.1,1.1,0.4,1.6s0.6,0.8,1,1.1
					c0.4,0.2,0.8,0.4,1.3,0.4s0.9-0.1,1.3-0.4c0.4-0.2,0.7-0.6,1-1C1408.7,858.6,1408.8,858.1,1408.8,857.5z M1414.9,850v11.8h-1.8
					V850H1414.9z M1425.4,857.3c0,0.3,0,0.6-0.1,0.9h-6.7c0.1,0.7,0.3,1.3,0.8,1.7s1,0.6,1.7,0.6c1,0,1.7-0.4,2.1-1.2h2
					c-0.3,0.8-0.8,1.5-1.4,2c-0.7,0.5-1.6,0.8-2.6,0.8c-0.8,0-1.6-0.2-2.3-0.6c-0.7-0.4-1.2-0.9-1.6-1.6c-0.4-0.7-0.6-1.5-0.6-2.4
					s0.2-1.7,0.5-2.4c0.4-0.7,0.9-1.2,1.6-1.6c0.7-0.4,1.4-0.6,2.3-0.6c0.8,0,1.6,0.2,2.2,0.5c0.6,0.4,1.2,0.9,1.5,1.5
					C1425.2,855.7,1425.4,856.4,1425.4,857.3z M1423.5,856.7c0-0.7-0.3-1.2-0.7-1.6c-0.5-0.4-1.1-0.6-1.7-0.6s-1.2,0.2-1.6,0.6
					c-0.5,0.4-0.7,0.9-0.8,1.6H1423.5z"/>
				<path class="st28" d="M1146,831.4h304c4.1,0,7.5,3.4,7.5,7.5v34c0,4.1-3.4,7.5-7.5,7.5h-304c-4.1,0-7.5-3.4-7.5-7.5v-34
					C1138.5,834.7,1141.9,831.4,1146,831.4z"/>
				<path class="st37" d="M1221,725.9h4.5v21.3h-4.5V725.9z"/>
				<path class="st37" d="M1243.6,739.5c0,0.1,0,0.5-0.1,1.2h-11.7c0.2,1,0.7,1.7,1.5,2.3s1.8,0.8,2.9,0.8c0.8,0,1.5-0.1,2.1-0.3
					s1.2-0.6,1.8-1.1l2.4,2.6c-1.5,1.7-3.6,2.5-6.4,2.5c-1.7,0-3.3-0.3-4.6-1c-1.3-0.7-2.4-1.6-3.1-2.8s-1.1-2.6-1.1-4.1
					s0.4-2.9,1.1-4.1c0.7-1.2,1.7-2.2,2.9-2.8c1.3-0.7,2.7-1,4.2-1s2.9,0.3,4.1,1c1.2,0.6,2.2,1.6,2.9,2.8
					C1243.2,736.5,1243.6,737.9,1243.6,739.5z M1235.6,734.9c-1,0-1.9,0.3-2.5,0.9c-0.7,0.6-1.1,1.4-1.3,2.4h7.6
					c-0.2-1-0.6-1.7-1.3-2.3C1237.4,735.2,1236.6,734.9,1235.6,734.9z"/>
				<path class="st37" d="M1255.4,746.4c-0.4,0.3-1,0.6-1.6,0.7c-0.6,0.2-1.3,0.2-2,0.2c-1.8,0-3.3-0.5-4.3-1.4s-1.5-2.3-1.5-4.1
					v-6.3h-2.4v-3.4h2.4v-3.8h4.5v3.8h3.8v3.4h-3.8v6.3c0,0.7,0.2,1.2,0.5,1.5s0.8,0.5,1.4,0.5c0.7,0,1.3-0.2,1.8-0.6L1255.4,746.4z
					"/>
				<path class="st37" d="M1276.5,731.5c1.9,0,3.5,0.6,4.6,1.7c1.2,1.1,1.7,2.8,1.7,5.1v8.8h-4.5V739c0-1.2-0.3-2.1-0.8-2.7
					c-0.5-0.6-1.2-0.9-2.2-0.9c-1.1,0-1.9,0.3-2.5,1s-0.9,1.7-0.9,3v7.7h-4.5V739c0-2.4-1-3.6-2.9-3.6c-1,0-1.9,0.3-2.5,1
					s-0.9,1.7-0.9,3v7.7h-4.5v-15.4h4.3v1.8c0.6-0.6,1.3-1.1,2.1-1.5c0.8-0.3,1.8-0.5,2.8-0.5c1.1,0,2.1,0.2,3,0.7
					c0.9,0.4,1.6,1,2.1,1.9c0.6-0.8,1.4-1.4,2.4-1.9C1274.3,731.7,1275.3,731.5,1276.5,731.5z"/>
				<path class="st37" d="M1300.9,739.5c0,0.1,0,0.5-0.1,1.2h-11.7c0.2,1,0.7,1.7,1.5,2.3s1.8,0.8,2.9,0.8c0.8,0,1.5-0.1,2.1-0.3
					s1.2-0.6,1.8-1.1l2.4,2.6c-1.4,1.7-3.6,2.5-6.4,2.5c-1.7,0-3.3-0.3-4.6-1c-1.3-0.7-2.4-1.6-3.1-2.8s-1.1-2.6-1.1-4.1
					s0.3-2.9,1.1-4.1c0.7-1.2,1.7-2.2,2.9-2.8c1.3-0.7,2.7-1,4.2-1s2.9,0.3,4.1,1c1.2,0.6,2.2,1.6,2.9,2.8
					C1300.6,736.5,1300.9,737.9,1300.9,739.5z M1292.9,734.9c-1,0-1.9,0.3-2.6,0.9c-0.7,0.6-1.1,1.4-1.3,2.4h7.6
					c-0.2-1-0.6-1.7-1.3-2.3C1294.8,735.2,1293.9,734.9,1292.9,734.9z"/>
				
					<linearGradient id="SVGID_25_" gradientUnits="userSpaceOnUse" x1="1313.4634" y1="168.1894" x2="1325.5433" y2="202.3014" gradientTransform="matrix(1 0 0 1 0 556)">
					<stop  offset="0" style="stop-color:#485BFF"/>
					<stop  offset="1" style="stop-color:#FF59F8"/>
				</linearGradient>
				<path class="st38" d="M1327.1,731.7l-3.1,15.4h-4.3l0.3-1.5c-1.3,1.2-2.9,1.7-4.7,1.7c-1.2,0-2.3-0.3-3.3-0.8
					c-1-0.6-1.8-1.3-2.4-2.4c-0.6-1.1-0.9-2.3-0.9-3.7c0-1.7,0.4-3.2,1.1-4.6c0.8-1.4,1.8-2.4,3.1-3.2c1.3-0.8,2.7-1.2,4.3-1.2
					c2.4,0,4.1,0.8,5,2.3l0.4-2.1L1327.1,731.7L1327.1,731.7z M1316.7,743.7c0.9,0,1.7-0.2,2.4-0.6c0.7-0.4,1.2-1,1.6-1.8
					s0.6-1.6,0.6-2.6c0-1.1-0.3-1.9-0.9-2.5s-1.5-0.9-2.6-0.9c-0.9,0-1.7,0.2-2.3,0.7c-0.7,0.4-1.2,1-1.6,1.8s-0.6,1.6-0.6,2.6
					c0,1.1,0.3,1.9,0.9,2.5C1314.7,743.4,1315.6,743.7,1316.7,743.7z"/>
				
					<linearGradient id="SVGID_26_" gradientUnits="userSpaceOnUse" x1="1326.5854" y1="163.5424" x2="1338.6654" y2="197.6544" gradientTransform="matrix(1 0 0 1 0 556)">
					<stop  offset="0" style="stop-color:#485BFF"/>
					<stop  offset="1" style="stop-color:#FF59F8"/>
				</linearGradient>
				<path class="st39" d="M1332.6,747.4c-1.3,0-2.6-0.1-3.8-0.4c-1.2-0.3-2.1-0.7-2.8-1.2l1.7-3.2c0.7,0.4,1.5,0.8,2.4,1.1
					c1,0.3,2,0.4,2.9,0.4c1,0,1.8-0.1,2.3-0.4c0.5-0.3,0.8-0.6,0.8-1.1c0-0.4-0.2-0.7-0.7-0.8c-0.4-0.2-1.2-0.4-2.1-0.5
					c-1.1-0.2-2-0.4-2.8-0.7c-0.7-0.2-1.3-0.7-1.9-1.2c-0.5-0.6-0.8-1.3-0.8-2.3c0-1.7,0.7-3,2.1-4s3.3-1.4,5.6-1.4
					c1.1,0,2.1,0.1,3.1,0.3s1.9,0.5,2.6,0.9l-1.6,3.3c-1.3-0.8-2.8-1.2-4.6-1.2c-1,0-1.7,0.1-2.2,0.4c-0.5,0.3-0.7,0.6-0.7,1.1
					c0,0.4,0.2,0.7,0.7,0.9c0.4,0.2,1.2,0.4,2.2,0.6c1.1,0.2,2,0.4,2.7,0.7c0.7,0.2,1.3,0.6,1.8,1.2c0.5,0.6,0.8,1.3,0.8,2.3
					c0,1.7-0.7,3-2.2,4C1336.8,746.9,1334.9,747.4,1332.6,747.4z"/>
				
					<linearGradient id="SVGID_27_" gradientUnits="userSpaceOnUse" x1="1341.809" y1="158.1514" x2="1353.8889" y2="192.2634" gradientTransform="matrix(1 0 0 1 0 556)">
					<stop  offset="0" style="stop-color:#485BFF"/>
					<stop  offset="1" style="stop-color:#FF59F8"/>
				</linearGradient>
				<path class="st40" d="M1352.6,738.4l5.3,8.7h-5.2l-3.7-6l-2.7,2.3l-0.8,3.7h-4.5l4.2-21.3h4.5l-2.4,11.9l7.4-6h5.8L1352.6,738.4
					z"/>
				
					<linearGradient id="SVGID_28_" gradientUnits="userSpaceOnUse" x1="1310.8204" y1="146.8235" x2="1371.0405" y2="221.3705" gradientTransform="matrix(1 0 0 1 0 556)">
					<stop  offset="0" style="stop-color:#485BFF"/>
					<stop  offset="1" style="stop-color:#FF59F8"/>
				</linearGradient>
				<path class="st41" d="M1302.1,722.8v-7.2c0-3.2,2.6-5.7,5.7-5.7h61.6c3.2,0,5.7,2.6,5.7,5.7v40.1c0,3.2-2.6,5.7-5.7,5.7h-10
					l3.3,15.7c0.3,1.4-1.3,2.3-2.4,1.4l-15.3-14.1h-37.3c-3.2,0-5.7-2.6-5.7-5.7v-2.9"/>
			</g>
		</g>
	</g>
</g>
</svg>
